%TF.GenerationSoftware,KiCad,Pcbnew,7.0.1-3b83917a11~172~ubuntu22.04.1*%
%TF.CreationDate,2023-04-03T22:42:06+01:00*%
%TF.ProjectId,adsr_vca_fx,61647372-5f76-4636-915f-66782e6b6963,rev?*%
%TF.SameCoordinates,Original*%
%TF.FileFunction,Soldermask,Bot*%
%TF.FilePolarity,Negative*%
%FSLAX46Y46*%
G04 Gerber Fmt 4.6, Leading zero omitted, Abs format (unit mm)*
G04 Created by KiCad (PCBNEW 7.0.1-3b83917a11~172~ubuntu22.04.1) date 2023-04-03 22:42:06*
%MOMM*%
%LPD*%
G01*
G04 APERTURE LIST*
G04 Aperture macros list*
%AMRoundRect*
0 Rectangle with rounded corners*
0 $1 Rounding radius*
0 $2 $3 $4 $5 $6 $7 $8 $9 X,Y pos of 4 corners*
0 Add a 4 corners polygon primitive as box body*
4,1,4,$2,$3,$4,$5,$6,$7,$8,$9,$2,$3,0*
0 Add four circle primitives for the rounded corners*
1,1,$1+$1,$2,$3*
1,1,$1+$1,$4,$5*
1,1,$1+$1,$6,$7*
1,1,$1+$1,$8,$9*
0 Add four rect primitives between the rounded corners*
20,1,$1+$1,$2,$3,$4,$5,0*
20,1,$1+$1,$4,$5,$6,$7,0*
20,1,$1+$1,$6,$7,$8,$9,0*
20,1,$1+$1,$8,$9,$2,$3,0*%
G04 Aperture macros list end*
%ADD10R,1.700000X1.700000*%
%ADD11O,1.700000X1.700000*%
%ADD12C,2.000000*%
%ADD13C,6.000000*%
%ADD14R,1.560000X1.560000*%
%ADD15C,1.560000*%
%ADD16O,2.720000X3.240000*%
%ADD17R,1.800000X1.800000*%
%ADD18C,1.800000*%
%ADD19C,3.000000*%
%ADD20C,1.600000*%
%ADD21RoundRect,0.250000X-0.450000X0.350000X-0.450000X-0.350000X0.450000X-0.350000X0.450000X0.350000X0*%
%ADD22RoundRect,0.250000X0.337500X0.475000X-0.337500X0.475000X-0.337500X-0.475000X0.337500X-0.475000X0*%
%ADD23RoundRect,0.250000X-0.475000X0.337500X-0.475000X-0.337500X0.475000X-0.337500X0.475000X0.337500X0*%
%ADD24RoundRect,0.250000X-0.337500X-0.475000X0.337500X-0.475000X0.337500X0.475000X-0.337500X0.475000X0*%
%ADD25RoundRect,0.250000X0.475000X-0.337500X0.475000X0.337500X-0.475000X0.337500X-0.475000X-0.337500X0*%
%ADD26RoundRect,0.250000X-0.350000X-0.450000X0.350000X-0.450000X0.350000X0.450000X-0.350000X0.450000X0*%
%ADD27RoundRect,0.250000X0.350000X0.450000X-0.350000X0.450000X-0.350000X-0.450000X0.350000X-0.450000X0*%
%ADD28RoundRect,0.250000X0.300000X0.300000X-0.300000X0.300000X-0.300000X-0.300000X0.300000X-0.300000X0*%
%ADD29R,2.400000X0.740000*%
G04 APERTURE END LIST*
D10*
%TO.C,J1*%
X123784600Y-127152400D03*
D11*
X121244600Y-127152400D03*
X118704600Y-127152400D03*
%TD*%
D12*
%TO.C,SW2*%
X137450000Y-68020000D03*
X137450000Y-61520000D03*
X141950000Y-68020000D03*
X141950000Y-61520000D03*
%TD*%
D13*
%TO.C,H3*%
X161290000Y-138430000D03*
%TD*%
D10*
%TO.C,J3*%
X113284000Y-122488750D03*
D11*
X113284000Y-119948750D03*
X115824000Y-122488750D03*
X115824000Y-119948750D03*
%TD*%
D14*
%TO.C,RV1*%
X102790000Y-105587600D03*
D15*
X97790000Y-108087600D03*
X102790000Y-110587600D03*
%TD*%
D16*
%TO.C,RV3*%
X161010000Y-97025000D03*
X151410000Y-97025000D03*
D17*
X158710000Y-89525000D03*
D18*
X156210000Y-89525000D03*
X153710000Y-89525000D03*
%TD*%
D16*
%TO.C,RV4*%
X161010000Y-114805000D03*
X151410000Y-114805000D03*
D17*
X158710000Y-107305000D03*
D18*
X156210000Y-107305000D03*
X153710000Y-107305000D03*
%TD*%
D11*
%TO.C,J5*%
X139294000Y-109220000D03*
D10*
X141834000Y-109220000D03*
%TD*%
%TO.C,JP1*%
X101142800Y-117652800D03*
D11*
X98602800Y-117652800D03*
%TD*%
D16*
%TO.C,RV12*%
X89890000Y-111275000D03*
X80290000Y-111275000D03*
D17*
X87590000Y-103775000D03*
D18*
X85090000Y-103775000D03*
X82590000Y-103775000D03*
%TD*%
D10*
%TO.C,J9*%
X127787800Y-98943600D03*
D11*
X125247800Y-98943600D03*
%TD*%
D12*
%TO.C,SW3*%
X147610000Y-68020000D03*
X147610000Y-61520000D03*
X152110000Y-68020000D03*
X152110000Y-61520000D03*
%TD*%
D14*
%TO.C,RV6*%
X143510000Y-77170000D03*
D15*
X141010000Y-72170000D03*
X138510000Y-77170000D03*
%TD*%
D10*
%TO.C,J10*%
X116347500Y-98948000D03*
D11*
X118887500Y-98948000D03*
%TD*%
D14*
%TO.C,RV8*%
X138430000Y-105370000D03*
D15*
X143430000Y-102870000D03*
X138430000Y-100370000D03*
%TD*%
D13*
%TO.C,H1*%
X161290000Y-54610000D03*
%TD*%
D16*
%TO.C,RV11*%
X89890000Y-76969000D03*
X80290000Y-76969000D03*
D17*
X87590000Y-69469000D03*
D18*
X85090000Y-69469000D03*
X82590000Y-69469000D03*
%TD*%
D10*
%TO.C,J8*%
X142240000Y-92710000D03*
D11*
X139700000Y-92710000D03*
%TD*%
D16*
%TO.C,RV13*%
X89890000Y-94130000D03*
X80290000Y-94130000D03*
D17*
X87590000Y-86630000D03*
D18*
X85090000Y-86630000D03*
X82590000Y-86630000D03*
%TD*%
D16*
%TO.C,RV14*%
X89890000Y-128775000D03*
X80290000Y-128775000D03*
D17*
X87590000Y-121275000D03*
D18*
X85090000Y-121275000D03*
X82590000Y-121275000D03*
%TD*%
D12*
%TO.C,SW1*%
X81840000Y-61504000D03*
X88340000Y-61504000D03*
X81840000Y-66004000D03*
X88340000Y-66004000D03*
%TD*%
D14*
%TO.C,RV9*%
X97790000Y-83812000D03*
D15*
X102790000Y-81312000D03*
X97790000Y-78812000D03*
%TD*%
D14*
%TO.C,RV7*%
X97870000Y-100290000D03*
D15*
X102870000Y-97790000D03*
X97870000Y-95290000D03*
%TD*%
D13*
%TO.C,H4*%
X80010000Y-138430000D03*
%TD*%
D14*
%TO.C,RV5*%
X97790000Y-76192000D03*
D15*
X102790000Y-73692000D03*
X97790000Y-71192000D03*
%TD*%
D12*
%TO.C,SW4*%
X157770000Y-68020000D03*
X157770000Y-61520000D03*
X162270000Y-68020000D03*
X162270000Y-61520000D03*
%TD*%
D16*
%TO.C,RV2*%
X161010000Y-79245000D03*
X151410000Y-79245000D03*
D17*
X158710000Y-71745000D03*
D18*
X156210000Y-71745000D03*
X153710000Y-71745000D03*
%TD*%
D10*
%TO.C,J2*%
X127000000Y-122488750D03*
D11*
X127000000Y-119948750D03*
X129540000Y-122488750D03*
X129540000Y-119948750D03*
%TD*%
D14*
%TO.C,RV10*%
X143510000Y-87630000D03*
D15*
X141010000Y-82630000D03*
X138510000Y-87630000D03*
%TD*%
D10*
%TO.C,J7*%
X99060000Y-89567000D03*
D11*
X101600000Y-89567000D03*
%TD*%
D19*
%TO.C,J11*%
X109066200Y-56162400D03*
X109066200Y-79451200D03*
X132129400Y-56162400D03*
X132129400Y-79400400D03*
D20*
X116787800Y-55880000D03*
X119327800Y-55880000D03*
X121867800Y-55880000D03*
X124453800Y-55880000D03*
%TD*%
D13*
%TO.C,H2*%
X80010000Y-54610000D03*
%TD*%
D10*
%TO.C,J4*%
X122682000Y-114554000D03*
D11*
X120142000Y-114554000D03*
%TD*%
D21*
%TO.C,R4*%
X156210000Y-112030000D03*
X156210000Y-114030000D03*
%TD*%
D22*
%TO.C,C12*%
X116037000Y-79263000D03*
X113962000Y-79263000D03*
%TD*%
D23*
%TO.C,C9*%
X112776000Y-58677900D03*
X112776000Y-60752900D03*
%TD*%
D21*
%TO.C,R2*%
X156210000Y-75363000D03*
X156210000Y-77363000D03*
%TD*%
%TO.C,R14*%
X126746000Y-77232000D03*
X126746000Y-79232000D03*
%TD*%
D22*
%TO.C,C22*%
X96444500Y-123698000D03*
X94369500Y-123698000D03*
%TD*%
D23*
%TO.C,C6*%
X118770800Y-67705500D03*
X118770800Y-69780500D03*
%TD*%
D24*
%TO.C,C21*%
X94369500Y-125857000D03*
X96444500Y-125857000D03*
%TD*%
%TO.C,C10*%
X126740000Y-90693000D03*
X128815000Y-90693000D03*
%TD*%
D23*
%TO.C,C8*%
X114935000Y-58677900D03*
X114935000Y-60752900D03*
%TD*%
D25*
%TO.C,C23*%
X123190000Y-136158500D03*
X123190000Y-134083500D03*
%TD*%
D23*
%TO.C,C7*%
X126340000Y-61457100D03*
X126340000Y-63532100D03*
%TD*%
D24*
%TO.C,C4*%
X106111523Y-118042500D03*
X108186523Y-118042500D03*
%TD*%
D26*
%TO.C,R1*%
X114188500Y-108473000D03*
X116188500Y-108473000D03*
%TD*%
D24*
%TO.C,C2*%
X114151000Y-111013000D03*
X116226000Y-111013000D03*
%TD*%
D26*
%TO.C,R16*%
X114077500Y-93233000D03*
X116077500Y-93233000D03*
%TD*%
%TO.C,R25*%
X120269000Y-120964750D03*
X122269000Y-120964750D03*
%TD*%
D24*
%TO.C,C11*%
X114040000Y-90693000D03*
X116115000Y-90693000D03*
%TD*%
D26*
%TO.C,R13*%
X113999500Y-76723000D03*
X115999500Y-76723000D03*
%TD*%
D11*
%TO.C,J12*%
X100345000Y-57150000D03*
X97805000Y-57150000D03*
D10*
X95265000Y-57150000D03*
%TD*%
D23*
%TO.C,C5*%
X124054000Y-61457100D03*
X124054000Y-63532100D03*
%TD*%
D27*
%TO.C,R18*%
X128777500Y-93233000D03*
X126777500Y-93233000D03*
%TD*%
D28*
%TO.C,D3*%
X122685000Y-118678750D03*
X119885000Y-118678750D03*
%TD*%
D29*
%TO.C,J6*%
X95840000Y-65405000D03*
X99740000Y-65405000D03*
X95840000Y-64135000D03*
X99740000Y-64135000D03*
X95840000Y-62865000D03*
X99740000Y-62865000D03*
X95840000Y-61595000D03*
X99740000Y-61595000D03*
X95840000Y-60325000D03*
X99740000Y-60325000D03*
%TD*%
D24*
%TO.C,C1*%
X126916000Y-105933000D03*
X128991000Y-105933000D03*
%TD*%
D21*
%TO.C,R3*%
X156210000Y-96790000D03*
X156210000Y-98790000D03*
%TD*%
D24*
%TO.C,C13*%
X121746500Y-72680000D03*
X123821500Y-72680000D03*
%TD*%
D27*
%TO.C,R6*%
X92440000Y-57150000D03*
X90440000Y-57150000D03*
%TD*%
D24*
%TO.C,C3*%
X106111523Y-120287000D03*
X108186523Y-120287000D03*
%TD*%
M02*
