M48
; DRILL file {KiCad 7.0.1-3b83917a11~172~ubuntu22.04.1} date Mon 03 Apr 2023 22:42:07 BST
; FORMAT={-:-/ absolute / inch / decimal}
; #@! TF.CreationDate,2023-04-03T22:42:07+01:00
; #@! TF.GenerationSoftware,Kicad,Pcbnew,7.0.1-3b83917a11~172~ubuntu22.04.1
; #@! TF.FileFunction,Plated,1,4,PTH
FMAT,2
INCH
; #@! TA.AperFunction,Plated,PTH,ComponentDrill
T1C0.0079
; #@! TA.AperFunction,Plated,PTH,ViaDrill
T2C0.0157
; #@! TA.AperFunction,Plated,PTH,ComponentDrill
T3C0.0315
; #@! TA.AperFunction,Plated,PTH,ComponentDrill
T4C0.0394
; #@! TA.AperFunction,Plated,PTH,ComponentDrill
T5C0.0433
; #@! TA.AperFunction,Plated,PTH,ComponentDrill
T6C0.1181
%
G90
G05
T1
X4.7057Y-2.4468
X4.7057Y-2.4862
X4.7057Y-2.5256
X4.7451Y-2.4468
X4.7451Y-2.4862
X4.7451Y-2.5256
X4.7845Y-2.4468
X4.7845Y-2.4862
X4.7845Y-2.5256
T2
X3.08Y-2.38
X3.08Y-5.24
X3.14Y-3.36
X3.14Y-4.0
X3.14Y-4.7
X3.25Y-2.95
X3.25Y-3.15
X3.3Y-4.25
X3.3Y-4.48
X3.3Y-4.95
X3.3Y-5.18
X3.32Y-3.58
X3.32Y-3.76
X3.34Y-3.06
X3.35Y-2.05
X3.35Y-2.2
X3.35Y-5.55
X3.38Y-4.38
X3.4Y-5.06
X3.45Y-5.45
X3.46Y-2.12
X3.55Y-4.55
X3.55Y-5.55
X3.59Y-4.05
X3.59Y-4.19
X3.6Y-3.3
X3.6Y-3.5
X3.6Y-3.85
X3.62Y-2.36
X3.62Y-4.66
X3.65Y-5.212
X3.65Y-5.45
X3.658Y-2.649
X3.6662Y-4.955
X3.72Y-4.74
X3.75Y-4.45
X3.77Y-4.13
X3.792Y-5.34
X3.826Y-5.44
X3.8438Y-4.8876
X3.8486Y-4.9624
X3.858Y-5.106
X3.91Y-3.85
X3.925Y-5.4597
X3.95Y-2.65
X3.97Y-3.67
X4.01Y-4.25
X4.06Y-5.14
X4.11Y-3.67
X4.11Y-3.95
X4.12Y-2.18
X4.128Y-4.7352
X4.13Y-4.25
X4.15Y-2.75
X4.15Y-3.15
X4.15Y-4.55
X4.155Y-5.3347
X4.17Y-3.85
X4.208Y-4.852
X4.24Y-2.68
X4.25Y-3.75
X4.25Y-3.95
X4.25Y-4.25
X4.25Y-4.45
X4.33Y-3.85
X4.3357Y-2.9997
X4.35Y-2.75
X4.35Y-3.45
X4.35Y-4.25
X4.35Y-4.55
X4.35Y-4.75
X4.3674Y-5.2423
X4.444Y-2.54
X4.444Y-2.63
X4.45Y-4.45
X4.46Y-2.2
X4.4867Y-2.54
X4.4867Y-2.66
X4.49Y-3.314
X4.49Y-3.818
X4.54Y-2.72
X4.54Y-3.46
X4.5674Y-5.2423
X4.61Y-2.6
X4.614Y-3.0214
X4.6198Y-4.2706
X4.6206Y-3.1206
X4.624Y-3.598
X4.624Y-3.6714
X4.626Y-4.37
X4.64Y-2.86
X4.676Y-2.6184
X4.685Y-4.7624
X4.74Y-4.1
X4.7648Y-5.2423
X4.77Y-2.285
X4.77Y-2.345
X4.78Y-3.4
X4.781Y-2.626
X4.8Y-5.48
X4.826Y-2.626
X4.85Y-2.75
X4.85Y-4.0
X4.85Y-5.4097
X4.8506Y-2.3704
X4.874Y-2.932
X4.916Y-4.591
X4.939Y-3.1214
X4.9432Y-3.6706
X4.944Y-4.3714
X4.946Y-3.57
X4.9482Y-4.2206
X4.95Y-2.65
X4.95Y-5.25
X5.0Y-3.46
X5.04Y-2.2
X5.05Y-2.75
X5.05Y-5.15
X5.05Y-5.35
X5.06Y-2.58
X5.07Y-3.418
X5.1Y-4.32
X5.118Y-3.77
X5.15Y-2.35
X5.15Y-2.65
X5.15Y-5.2042
X5.152Y-2.996
X5.178Y-4.514
X5.2Y-3.82
X5.21Y-3.51
X5.25Y-4.65
X5.25Y-4.85
X5.25Y-5.3042
X5.26Y-2.6
X5.26Y-2.74
X5.28Y-2.42
X5.32Y-2.28
X5.35Y-3.05
X5.35Y-3.15
X5.35Y-4.55
X5.35Y-4.75
X5.36Y-4.22
X5.44Y-4.48
X5.44Y-5.46
X5.45Y-4.85
X5.45Y-5.3042
X5.5Y-2.2
X5.53Y-4.8792
X5.55Y-2.99
X5.55Y-4.11
X5.55Y-4.55
X5.55Y-4.75
X5.55Y-5.55
X5.5769Y-5.0923
X5.59Y-4.9542
X5.64Y-5.46
X5.66Y-2.2
X5.66Y-4.48
X5.72Y-5.0942
X5.73Y-3.25
X5.73Y-3.51
X5.74Y-2.86
X5.74Y-3.06
X5.74Y-3.96
X5.75Y-4.55
X5.75Y-4.75
X5.75Y-5.55
X5.82Y-5.0942
X5.84Y-4.48
X5.84Y-5.46
X5.85Y-2.75
X5.85Y-2.95
X5.85Y-3.15
X5.85Y-3.35
X5.85Y-3.55
X5.85Y-3.85
X5.85Y-4.05
X5.86Y-2.2
X5.909Y-4.2
X5.92Y-2.86
X5.946Y-4.9762
X5.95Y-5.55
X5.96Y-2.08
X5.9869Y-5.0973
X6.03Y-2.95
X6.04Y-2.2
X6.04Y-4.66
X6.04Y-5.46
X6.05Y-3.25
X6.05Y-3.75
X6.05Y-4.85
X6.1Y-2.36
X6.1Y-2.7
X6.12Y-2.08
X6.15Y-3.95
X6.15Y-4.61
X6.15Y-5.4042
X6.15Y-5.55
X6.1769Y-5.0973
X6.1938Y-3.2062
X6.25Y-2.95
X6.25Y-4.85
X6.26Y-4.68
X6.35Y-4.15
X6.35Y-4.9042
X6.35Y-5.1042
X6.45Y-2.55
X6.45Y-2.85
X6.45Y-3.05
X6.45Y-3.25
X6.45Y-3.45
X6.45Y-3.65
X6.45Y-3.85
X6.45Y-4.05
X6.45Y-4.25
X6.45Y-4.45
X6.45Y-4.65
X6.45Y-4.85
X6.45Y-5.05
X6.45Y-5.25
T3
X4.5979Y-2.2
X4.6979Y-2.2
X4.7979Y-2.2
X4.8998Y-2.2
T4
X3.2516Y-2.735
X3.2516Y-3.4106
X3.2516Y-4.0856
X3.2516Y-4.7746
X3.35Y-2.735
X3.35Y-3.4106
X3.35Y-4.0856
X3.35Y-4.7746
X3.4484Y-2.735
X3.4484Y-3.4106
X3.4484Y-4.0856
X3.4484Y-4.7746
X3.7506Y-2.25
X3.85Y-2.8028
X3.85Y-2.9997
X3.85Y-3.1028
X3.85Y-3.2997
X3.85Y-4.2554
X3.8506Y-2.25
X3.8531Y-3.7516
X3.8531Y-3.9484
X3.882Y-4.632
X3.9Y-3.5263
X3.9506Y-2.25
X3.982Y-4.632
X4.0Y-3.5263
X4.0469Y-2.9013
X4.0469Y-3.2013
X4.0469Y-4.157
X4.0469Y-4.3538
X4.05Y-3.85
X4.46Y-4.7224
X4.46Y-4.8224
X4.56Y-4.7224
X4.56Y-4.8224
X4.5806Y-3.8956
X4.6734Y-5.006
X4.6806Y-3.8956
X4.73Y-4.51
X4.7734Y-5.006
X4.83Y-4.51
X4.8734Y-5.006
X4.931Y-3.8954
X5.0Y-4.7224
X5.0Y-4.8224
X5.031Y-3.8954
X5.1Y-4.7224
X5.1Y-4.8224
X5.45Y-3.9516
X5.45Y-4.1484
X5.4531Y-3.0382
X5.4531Y-3.45
X5.484Y-4.3
X5.5Y-3.65
X5.5516Y-2.8413
X5.5516Y-3.2531
X5.584Y-4.3
X5.6Y-3.65
X5.6469Y-4.05
X5.65Y-3.0382
X5.65Y-3.45
X6.0516Y-2.8246
X6.0516Y-3.5246
X6.0516Y-4.2246
X6.15Y-2.8246
X6.15Y-3.5246
X6.15Y-4.2246
X6.2484Y-2.8246
X6.2484Y-3.5246
X6.2484Y-4.2246
T5
X3.222Y-2.4214
X3.222Y-2.5986
X3.478Y-2.4214
X3.478Y-2.5986
X5.4114Y-2.422
X5.4114Y-2.678
X5.5886Y-2.422
X5.5886Y-2.678
X5.8114Y-2.422
X5.8114Y-2.678
X5.9886Y-2.422
X5.9886Y-2.678
X6.2114Y-2.422
X6.2114Y-2.678
X6.3886Y-2.422
X6.3886Y-2.678
T6
X3.15Y-2.15
X3.15Y-5.45
X6.35Y-2.15
X6.35Y-5.45
T5
G00X3.161Y-3.0165
M15
G01X3.161Y-3.0441
M16
G05
G00X3.161Y-3.6921
M15
G01X3.161Y-3.7197
M16
G05
G00X3.161Y-4.3671
M15
G01X3.161Y-4.3947
M16
G05
G00X3.161Y-5.0561
M15
G01X3.161Y-5.0837
M16
G05
G00X3.539Y-3.0165
M15
G01X3.539Y-3.0441
M16
G05
G00X3.539Y-3.6921
M15
G01X3.539Y-3.7197
M16
G05
G00X3.539Y-4.3671
M15
G01X3.539Y-4.3947
M16
G05
G00X3.539Y-5.0561
M15
G01X3.539Y-5.0837
M16
G05
G00X5.961Y-3.1061
M15
G01X5.961Y-3.1337
M16
G05
G00X5.961Y-3.8061
M15
G01X5.961Y-3.8337
M16
G05
G00X5.961Y-4.5061
M15
G01X5.961Y-4.5337
M16
G05
G00X6.339Y-3.1061
M15
G01X6.339Y-3.1337
M16
G05
G00X6.339Y-3.8061
M15
G01X6.339Y-3.8337
M16
G05
G00X6.339Y-4.5061
M15
G01X6.339Y-4.5337
M16
G05
T0
M30
