%TF.GenerationSoftware,KiCad,Pcbnew,7.0.1-3b83917a11~172~ubuntu22.04.1*%
%TF.CreationDate,2023-04-03T22:42:05+01:00*%
%TF.ProjectId,adsr_vca_fx,61647372-5f76-4636-915f-66782e6b6963,rev?*%
%TF.SameCoordinates,Original*%
%TF.FileFunction,Legend,Bot*%
%TF.FilePolarity,Positive*%
%FSLAX46Y46*%
G04 Gerber Fmt 4.6, Leading zero omitted, Abs format (unit mm)*
G04 Created by KiCad (PCBNEW 7.0.1-3b83917a11~172~ubuntu22.04.1) date 2023-04-03 22:42:05*
%MOMM*%
%LPD*%
G01*
G04 APERTURE LIST*
%ADD10C,0.500000*%
%ADD11C,0.150000*%
%ADD12C,0.120000*%
G04 APERTURE END LIST*
D10*
X93726001Y-65405000D02*
G75*
G03*
X93726001Y-65405000I-1J0D01*
G01*
D11*
%TO.C,R4*%
X156376666Y-110952619D02*
X156709999Y-110476428D01*
X156948094Y-110952619D02*
X156948094Y-109952619D01*
X156948094Y-109952619D02*
X156567142Y-109952619D01*
X156567142Y-109952619D02*
X156471904Y-110000238D01*
X156471904Y-110000238D02*
X156424285Y-110047857D01*
X156424285Y-110047857D02*
X156376666Y-110143095D01*
X156376666Y-110143095D02*
X156376666Y-110285952D01*
X156376666Y-110285952D02*
X156424285Y-110381190D01*
X156424285Y-110381190D02*
X156471904Y-110428809D01*
X156471904Y-110428809D02*
X156567142Y-110476428D01*
X156567142Y-110476428D02*
X156948094Y-110476428D01*
X155519523Y-110285952D02*
X155519523Y-110952619D01*
X155757618Y-109905000D02*
X155995713Y-110619285D01*
X155995713Y-110619285D02*
X155376666Y-110619285D01*
%TO.C,C12*%
X115756057Y-81607180D02*
X115803676Y-81654800D01*
X115803676Y-81654800D02*
X115946533Y-81702419D01*
X115946533Y-81702419D02*
X116041771Y-81702419D01*
X116041771Y-81702419D02*
X116184628Y-81654800D01*
X116184628Y-81654800D02*
X116279866Y-81559561D01*
X116279866Y-81559561D02*
X116327485Y-81464323D01*
X116327485Y-81464323D02*
X116375104Y-81273847D01*
X116375104Y-81273847D02*
X116375104Y-81130990D01*
X116375104Y-81130990D02*
X116327485Y-80940514D01*
X116327485Y-80940514D02*
X116279866Y-80845276D01*
X116279866Y-80845276D02*
X116184628Y-80750038D01*
X116184628Y-80750038D02*
X116041771Y-80702419D01*
X116041771Y-80702419D02*
X115946533Y-80702419D01*
X115946533Y-80702419D02*
X115803676Y-80750038D01*
X115803676Y-80750038D02*
X115756057Y-80797657D01*
X114803676Y-81702419D02*
X115375104Y-81702419D01*
X115089390Y-81702419D02*
X115089390Y-80702419D01*
X115089390Y-80702419D02*
X115184628Y-80845276D01*
X115184628Y-80845276D02*
X115279866Y-80940514D01*
X115279866Y-80940514D02*
X115375104Y-80988133D01*
X114422723Y-80797657D02*
X114375104Y-80750038D01*
X114375104Y-80750038D02*
X114279866Y-80702419D01*
X114279866Y-80702419D02*
X114041771Y-80702419D01*
X114041771Y-80702419D02*
X113946533Y-80750038D01*
X113946533Y-80750038D02*
X113898914Y-80797657D01*
X113898914Y-80797657D02*
X113851295Y-80892895D01*
X113851295Y-80892895D02*
X113851295Y-80988133D01*
X113851295Y-80988133D02*
X113898914Y-81130990D01*
X113898914Y-81130990D02*
X114470342Y-81702419D01*
X114470342Y-81702419D02*
X113851295Y-81702419D01*
%TO.C,C9*%
X112942666Y-62638780D02*
X112990285Y-62686400D01*
X112990285Y-62686400D02*
X113133142Y-62734019D01*
X113133142Y-62734019D02*
X113228380Y-62734019D01*
X113228380Y-62734019D02*
X113371237Y-62686400D01*
X113371237Y-62686400D02*
X113466475Y-62591161D01*
X113466475Y-62591161D02*
X113514094Y-62495923D01*
X113514094Y-62495923D02*
X113561713Y-62305447D01*
X113561713Y-62305447D02*
X113561713Y-62162590D01*
X113561713Y-62162590D02*
X113514094Y-61972114D01*
X113514094Y-61972114D02*
X113466475Y-61876876D01*
X113466475Y-61876876D02*
X113371237Y-61781638D01*
X113371237Y-61781638D02*
X113228380Y-61734019D01*
X113228380Y-61734019D02*
X113133142Y-61734019D01*
X113133142Y-61734019D02*
X112990285Y-61781638D01*
X112990285Y-61781638D02*
X112942666Y-61829257D01*
X112466475Y-62734019D02*
X112275999Y-62734019D01*
X112275999Y-62734019D02*
X112180761Y-62686400D01*
X112180761Y-62686400D02*
X112133142Y-62638780D01*
X112133142Y-62638780D02*
X112037904Y-62495923D01*
X112037904Y-62495923D02*
X111990285Y-62305447D01*
X111990285Y-62305447D02*
X111990285Y-61924495D01*
X111990285Y-61924495D02*
X112037904Y-61829257D01*
X112037904Y-61829257D02*
X112085523Y-61781638D01*
X112085523Y-61781638D02*
X112180761Y-61734019D01*
X112180761Y-61734019D02*
X112371237Y-61734019D01*
X112371237Y-61734019D02*
X112466475Y-61781638D01*
X112466475Y-61781638D02*
X112514094Y-61829257D01*
X112514094Y-61829257D02*
X112561713Y-61924495D01*
X112561713Y-61924495D02*
X112561713Y-62162590D01*
X112561713Y-62162590D02*
X112514094Y-62257828D01*
X112514094Y-62257828D02*
X112466475Y-62305447D01*
X112466475Y-62305447D02*
X112371237Y-62353066D01*
X112371237Y-62353066D02*
X112180761Y-62353066D01*
X112180761Y-62353066D02*
X112085523Y-62305447D01*
X112085523Y-62305447D02*
X112037904Y-62257828D01*
X112037904Y-62257828D02*
X111990285Y-62162590D01*
%TO.C,R2*%
X156376666Y-79837619D02*
X156709999Y-79361428D01*
X156948094Y-79837619D02*
X156948094Y-78837619D01*
X156948094Y-78837619D02*
X156567142Y-78837619D01*
X156567142Y-78837619D02*
X156471904Y-78885238D01*
X156471904Y-78885238D02*
X156424285Y-78932857D01*
X156424285Y-78932857D02*
X156376666Y-79028095D01*
X156376666Y-79028095D02*
X156376666Y-79170952D01*
X156376666Y-79170952D02*
X156424285Y-79266190D01*
X156424285Y-79266190D02*
X156471904Y-79313809D01*
X156471904Y-79313809D02*
X156567142Y-79361428D01*
X156567142Y-79361428D02*
X156948094Y-79361428D01*
X155995713Y-78932857D02*
X155948094Y-78885238D01*
X155948094Y-78885238D02*
X155852856Y-78837619D01*
X155852856Y-78837619D02*
X155614761Y-78837619D01*
X155614761Y-78837619D02*
X155519523Y-78885238D01*
X155519523Y-78885238D02*
X155471904Y-78932857D01*
X155471904Y-78932857D02*
X155424285Y-79028095D01*
X155424285Y-79028095D02*
X155424285Y-79123333D01*
X155424285Y-79123333D02*
X155471904Y-79266190D01*
X155471904Y-79266190D02*
X156043332Y-79837619D01*
X156043332Y-79837619D02*
X155424285Y-79837619D01*
%TO.C,R14*%
X127642857Y-76027619D02*
X127976190Y-75551428D01*
X128214285Y-76027619D02*
X128214285Y-75027619D01*
X128214285Y-75027619D02*
X127833333Y-75027619D01*
X127833333Y-75027619D02*
X127738095Y-75075238D01*
X127738095Y-75075238D02*
X127690476Y-75122857D01*
X127690476Y-75122857D02*
X127642857Y-75218095D01*
X127642857Y-75218095D02*
X127642857Y-75360952D01*
X127642857Y-75360952D02*
X127690476Y-75456190D01*
X127690476Y-75456190D02*
X127738095Y-75503809D01*
X127738095Y-75503809D02*
X127833333Y-75551428D01*
X127833333Y-75551428D02*
X128214285Y-75551428D01*
X126690476Y-76027619D02*
X127261904Y-76027619D01*
X126976190Y-76027619D02*
X126976190Y-75027619D01*
X126976190Y-75027619D02*
X127071428Y-75170476D01*
X127071428Y-75170476D02*
X127166666Y-75265714D01*
X127166666Y-75265714D02*
X127261904Y-75313333D01*
X125833333Y-75360952D02*
X125833333Y-76027619D01*
X126071428Y-74980000D02*
X126309523Y-75694285D01*
X126309523Y-75694285D02*
X125690476Y-75694285D01*
%TO.C,C22*%
X96049857Y-122385380D02*
X96097476Y-122433000D01*
X96097476Y-122433000D02*
X96240333Y-122480619D01*
X96240333Y-122480619D02*
X96335571Y-122480619D01*
X96335571Y-122480619D02*
X96478428Y-122433000D01*
X96478428Y-122433000D02*
X96573666Y-122337761D01*
X96573666Y-122337761D02*
X96621285Y-122242523D01*
X96621285Y-122242523D02*
X96668904Y-122052047D01*
X96668904Y-122052047D02*
X96668904Y-121909190D01*
X96668904Y-121909190D02*
X96621285Y-121718714D01*
X96621285Y-121718714D02*
X96573666Y-121623476D01*
X96573666Y-121623476D02*
X96478428Y-121528238D01*
X96478428Y-121528238D02*
X96335571Y-121480619D01*
X96335571Y-121480619D02*
X96240333Y-121480619D01*
X96240333Y-121480619D02*
X96097476Y-121528238D01*
X96097476Y-121528238D02*
X96049857Y-121575857D01*
X95668904Y-121575857D02*
X95621285Y-121528238D01*
X95621285Y-121528238D02*
X95526047Y-121480619D01*
X95526047Y-121480619D02*
X95287952Y-121480619D01*
X95287952Y-121480619D02*
X95192714Y-121528238D01*
X95192714Y-121528238D02*
X95145095Y-121575857D01*
X95145095Y-121575857D02*
X95097476Y-121671095D01*
X95097476Y-121671095D02*
X95097476Y-121766333D01*
X95097476Y-121766333D02*
X95145095Y-121909190D01*
X95145095Y-121909190D02*
X95716523Y-122480619D01*
X95716523Y-122480619D02*
X95097476Y-122480619D01*
X94716523Y-121575857D02*
X94668904Y-121528238D01*
X94668904Y-121528238D02*
X94573666Y-121480619D01*
X94573666Y-121480619D02*
X94335571Y-121480619D01*
X94335571Y-121480619D02*
X94240333Y-121528238D01*
X94240333Y-121528238D02*
X94192714Y-121575857D01*
X94192714Y-121575857D02*
X94145095Y-121671095D01*
X94145095Y-121671095D02*
X94145095Y-121766333D01*
X94145095Y-121766333D02*
X94192714Y-121909190D01*
X94192714Y-121909190D02*
X94764142Y-122480619D01*
X94764142Y-122480619D02*
X94145095Y-122480619D01*
%TO.C,C6*%
X117006666Y-69110380D02*
X117054285Y-69158000D01*
X117054285Y-69158000D02*
X117197142Y-69205619D01*
X117197142Y-69205619D02*
X117292380Y-69205619D01*
X117292380Y-69205619D02*
X117435237Y-69158000D01*
X117435237Y-69158000D02*
X117530475Y-69062761D01*
X117530475Y-69062761D02*
X117578094Y-68967523D01*
X117578094Y-68967523D02*
X117625713Y-68777047D01*
X117625713Y-68777047D02*
X117625713Y-68634190D01*
X117625713Y-68634190D02*
X117578094Y-68443714D01*
X117578094Y-68443714D02*
X117530475Y-68348476D01*
X117530475Y-68348476D02*
X117435237Y-68253238D01*
X117435237Y-68253238D02*
X117292380Y-68205619D01*
X117292380Y-68205619D02*
X117197142Y-68205619D01*
X117197142Y-68205619D02*
X117054285Y-68253238D01*
X117054285Y-68253238D02*
X117006666Y-68300857D01*
X116149523Y-68205619D02*
X116339999Y-68205619D01*
X116339999Y-68205619D02*
X116435237Y-68253238D01*
X116435237Y-68253238D02*
X116482856Y-68300857D01*
X116482856Y-68300857D02*
X116578094Y-68443714D01*
X116578094Y-68443714D02*
X116625713Y-68634190D01*
X116625713Y-68634190D02*
X116625713Y-69015142D01*
X116625713Y-69015142D02*
X116578094Y-69110380D01*
X116578094Y-69110380D02*
X116530475Y-69158000D01*
X116530475Y-69158000D02*
X116435237Y-69205619D01*
X116435237Y-69205619D02*
X116244761Y-69205619D01*
X116244761Y-69205619D02*
X116149523Y-69158000D01*
X116149523Y-69158000D02*
X116101904Y-69110380D01*
X116101904Y-69110380D02*
X116054285Y-69015142D01*
X116054285Y-69015142D02*
X116054285Y-68777047D01*
X116054285Y-68777047D02*
X116101904Y-68681809D01*
X116101904Y-68681809D02*
X116149523Y-68634190D01*
X116149523Y-68634190D02*
X116244761Y-68586571D01*
X116244761Y-68586571D02*
X116435237Y-68586571D01*
X116435237Y-68586571D02*
X116530475Y-68634190D01*
X116530475Y-68634190D02*
X116578094Y-68681809D01*
X116578094Y-68681809D02*
X116625713Y-68777047D01*
%TO.C,C21*%
X96049857Y-127904380D02*
X96097476Y-127952000D01*
X96097476Y-127952000D02*
X96240333Y-127999619D01*
X96240333Y-127999619D02*
X96335571Y-127999619D01*
X96335571Y-127999619D02*
X96478428Y-127952000D01*
X96478428Y-127952000D02*
X96573666Y-127856761D01*
X96573666Y-127856761D02*
X96621285Y-127761523D01*
X96621285Y-127761523D02*
X96668904Y-127571047D01*
X96668904Y-127571047D02*
X96668904Y-127428190D01*
X96668904Y-127428190D02*
X96621285Y-127237714D01*
X96621285Y-127237714D02*
X96573666Y-127142476D01*
X96573666Y-127142476D02*
X96478428Y-127047238D01*
X96478428Y-127047238D02*
X96335571Y-126999619D01*
X96335571Y-126999619D02*
X96240333Y-126999619D01*
X96240333Y-126999619D02*
X96097476Y-127047238D01*
X96097476Y-127047238D02*
X96049857Y-127094857D01*
X95668904Y-127094857D02*
X95621285Y-127047238D01*
X95621285Y-127047238D02*
X95526047Y-126999619D01*
X95526047Y-126999619D02*
X95287952Y-126999619D01*
X95287952Y-126999619D02*
X95192714Y-127047238D01*
X95192714Y-127047238D02*
X95145095Y-127094857D01*
X95145095Y-127094857D02*
X95097476Y-127190095D01*
X95097476Y-127190095D02*
X95097476Y-127285333D01*
X95097476Y-127285333D02*
X95145095Y-127428190D01*
X95145095Y-127428190D02*
X95716523Y-127999619D01*
X95716523Y-127999619D02*
X95097476Y-127999619D01*
X94145095Y-127999619D02*
X94716523Y-127999619D01*
X94430809Y-127999619D02*
X94430809Y-126999619D01*
X94430809Y-126999619D02*
X94526047Y-127142476D01*
X94526047Y-127142476D02*
X94621285Y-127237714D01*
X94621285Y-127237714D02*
X94716523Y-127285333D01*
%TO.C,C10*%
X132230357Y-91060380D02*
X132277976Y-91108000D01*
X132277976Y-91108000D02*
X132420833Y-91155619D01*
X132420833Y-91155619D02*
X132516071Y-91155619D01*
X132516071Y-91155619D02*
X132658928Y-91108000D01*
X132658928Y-91108000D02*
X132754166Y-91012761D01*
X132754166Y-91012761D02*
X132801785Y-90917523D01*
X132801785Y-90917523D02*
X132849404Y-90727047D01*
X132849404Y-90727047D02*
X132849404Y-90584190D01*
X132849404Y-90584190D02*
X132801785Y-90393714D01*
X132801785Y-90393714D02*
X132754166Y-90298476D01*
X132754166Y-90298476D02*
X132658928Y-90203238D01*
X132658928Y-90203238D02*
X132516071Y-90155619D01*
X132516071Y-90155619D02*
X132420833Y-90155619D01*
X132420833Y-90155619D02*
X132277976Y-90203238D01*
X132277976Y-90203238D02*
X132230357Y-90250857D01*
X131277976Y-91155619D02*
X131849404Y-91155619D01*
X131563690Y-91155619D02*
X131563690Y-90155619D01*
X131563690Y-90155619D02*
X131658928Y-90298476D01*
X131658928Y-90298476D02*
X131754166Y-90393714D01*
X131754166Y-90393714D02*
X131849404Y-90441333D01*
X130658928Y-90155619D02*
X130563690Y-90155619D01*
X130563690Y-90155619D02*
X130468452Y-90203238D01*
X130468452Y-90203238D02*
X130420833Y-90250857D01*
X130420833Y-90250857D02*
X130373214Y-90346095D01*
X130373214Y-90346095D02*
X130325595Y-90536571D01*
X130325595Y-90536571D02*
X130325595Y-90774666D01*
X130325595Y-90774666D02*
X130373214Y-90965142D01*
X130373214Y-90965142D02*
X130420833Y-91060380D01*
X130420833Y-91060380D02*
X130468452Y-91108000D01*
X130468452Y-91108000D02*
X130563690Y-91155619D01*
X130563690Y-91155619D02*
X130658928Y-91155619D01*
X130658928Y-91155619D02*
X130754166Y-91108000D01*
X130754166Y-91108000D02*
X130801785Y-91060380D01*
X130801785Y-91060380D02*
X130849404Y-90965142D01*
X130849404Y-90965142D02*
X130897023Y-90774666D01*
X130897023Y-90774666D02*
X130897023Y-90536571D01*
X130897023Y-90536571D02*
X130849404Y-90346095D01*
X130849404Y-90346095D02*
X130801785Y-90250857D01*
X130801785Y-90250857D02*
X130754166Y-90203238D01*
X130754166Y-90203238D02*
X130658928Y-90155619D01*
%TO.C,C8*%
X115101666Y-62622780D02*
X115149285Y-62670400D01*
X115149285Y-62670400D02*
X115292142Y-62718019D01*
X115292142Y-62718019D02*
X115387380Y-62718019D01*
X115387380Y-62718019D02*
X115530237Y-62670400D01*
X115530237Y-62670400D02*
X115625475Y-62575161D01*
X115625475Y-62575161D02*
X115673094Y-62479923D01*
X115673094Y-62479923D02*
X115720713Y-62289447D01*
X115720713Y-62289447D02*
X115720713Y-62146590D01*
X115720713Y-62146590D02*
X115673094Y-61956114D01*
X115673094Y-61956114D02*
X115625475Y-61860876D01*
X115625475Y-61860876D02*
X115530237Y-61765638D01*
X115530237Y-61765638D02*
X115387380Y-61718019D01*
X115387380Y-61718019D02*
X115292142Y-61718019D01*
X115292142Y-61718019D02*
X115149285Y-61765638D01*
X115149285Y-61765638D02*
X115101666Y-61813257D01*
X114530237Y-62146590D02*
X114625475Y-62098971D01*
X114625475Y-62098971D02*
X114673094Y-62051352D01*
X114673094Y-62051352D02*
X114720713Y-61956114D01*
X114720713Y-61956114D02*
X114720713Y-61908495D01*
X114720713Y-61908495D02*
X114673094Y-61813257D01*
X114673094Y-61813257D02*
X114625475Y-61765638D01*
X114625475Y-61765638D02*
X114530237Y-61718019D01*
X114530237Y-61718019D02*
X114339761Y-61718019D01*
X114339761Y-61718019D02*
X114244523Y-61765638D01*
X114244523Y-61765638D02*
X114196904Y-61813257D01*
X114196904Y-61813257D02*
X114149285Y-61908495D01*
X114149285Y-61908495D02*
X114149285Y-61956114D01*
X114149285Y-61956114D02*
X114196904Y-62051352D01*
X114196904Y-62051352D02*
X114244523Y-62098971D01*
X114244523Y-62098971D02*
X114339761Y-62146590D01*
X114339761Y-62146590D02*
X114530237Y-62146590D01*
X114530237Y-62146590D02*
X114625475Y-62194209D01*
X114625475Y-62194209D02*
X114673094Y-62241828D01*
X114673094Y-62241828D02*
X114720713Y-62337066D01*
X114720713Y-62337066D02*
X114720713Y-62527542D01*
X114720713Y-62527542D02*
X114673094Y-62622780D01*
X114673094Y-62622780D02*
X114625475Y-62670400D01*
X114625475Y-62670400D02*
X114530237Y-62718019D01*
X114530237Y-62718019D02*
X114339761Y-62718019D01*
X114339761Y-62718019D02*
X114244523Y-62670400D01*
X114244523Y-62670400D02*
X114196904Y-62622780D01*
X114196904Y-62622780D02*
X114149285Y-62527542D01*
X114149285Y-62527542D02*
X114149285Y-62337066D01*
X114149285Y-62337066D02*
X114196904Y-62241828D01*
X114196904Y-62241828D02*
X114244523Y-62194209D01*
X114244523Y-62194209D02*
X114339761Y-62146590D01*
%TO.C,C23*%
X123832857Y-132694380D02*
X123880476Y-132742000D01*
X123880476Y-132742000D02*
X124023333Y-132789619D01*
X124023333Y-132789619D02*
X124118571Y-132789619D01*
X124118571Y-132789619D02*
X124261428Y-132742000D01*
X124261428Y-132742000D02*
X124356666Y-132646761D01*
X124356666Y-132646761D02*
X124404285Y-132551523D01*
X124404285Y-132551523D02*
X124451904Y-132361047D01*
X124451904Y-132361047D02*
X124451904Y-132218190D01*
X124451904Y-132218190D02*
X124404285Y-132027714D01*
X124404285Y-132027714D02*
X124356666Y-131932476D01*
X124356666Y-131932476D02*
X124261428Y-131837238D01*
X124261428Y-131837238D02*
X124118571Y-131789619D01*
X124118571Y-131789619D02*
X124023333Y-131789619D01*
X124023333Y-131789619D02*
X123880476Y-131837238D01*
X123880476Y-131837238D02*
X123832857Y-131884857D01*
X123451904Y-131884857D02*
X123404285Y-131837238D01*
X123404285Y-131837238D02*
X123309047Y-131789619D01*
X123309047Y-131789619D02*
X123070952Y-131789619D01*
X123070952Y-131789619D02*
X122975714Y-131837238D01*
X122975714Y-131837238D02*
X122928095Y-131884857D01*
X122928095Y-131884857D02*
X122880476Y-131980095D01*
X122880476Y-131980095D02*
X122880476Y-132075333D01*
X122880476Y-132075333D02*
X122928095Y-132218190D01*
X122928095Y-132218190D02*
X123499523Y-132789619D01*
X123499523Y-132789619D02*
X122880476Y-132789619D01*
X122547142Y-131789619D02*
X121928095Y-131789619D01*
X121928095Y-131789619D02*
X122261428Y-132170571D01*
X122261428Y-132170571D02*
X122118571Y-132170571D01*
X122118571Y-132170571D02*
X122023333Y-132218190D01*
X122023333Y-132218190D02*
X121975714Y-132265809D01*
X121975714Y-132265809D02*
X121928095Y-132361047D01*
X121928095Y-132361047D02*
X121928095Y-132599142D01*
X121928095Y-132599142D02*
X121975714Y-132694380D01*
X121975714Y-132694380D02*
X122023333Y-132742000D01*
X122023333Y-132742000D02*
X122118571Y-132789619D01*
X122118571Y-132789619D02*
X122404285Y-132789619D01*
X122404285Y-132789619D02*
X122499523Y-132742000D01*
X122499523Y-132742000D02*
X122547142Y-132694380D01*
%TO.C,C7*%
X126506666Y-60083980D02*
X126554285Y-60131600D01*
X126554285Y-60131600D02*
X126697142Y-60179219D01*
X126697142Y-60179219D02*
X126792380Y-60179219D01*
X126792380Y-60179219D02*
X126935237Y-60131600D01*
X126935237Y-60131600D02*
X127030475Y-60036361D01*
X127030475Y-60036361D02*
X127078094Y-59941123D01*
X127078094Y-59941123D02*
X127125713Y-59750647D01*
X127125713Y-59750647D02*
X127125713Y-59607790D01*
X127125713Y-59607790D02*
X127078094Y-59417314D01*
X127078094Y-59417314D02*
X127030475Y-59322076D01*
X127030475Y-59322076D02*
X126935237Y-59226838D01*
X126935237Y-59226838D02*
X126792380Y-59179219D01*
X126792380Y-59179219D02*
X126697142Y-59179219D01*
X126697142Y-59179219D02*
X126554285Y-59226838D01*
X126554285Y-59226838D02*
X126506666Y-59274457D01*
X126173332Y-59179219D02*
X125506666Y-59179219D01*
X125506666Y-59179219D02*
X125935237Y-60179219D01*
%TO.C,C4*%
X107315689Y-116844380D02*
X107363308Y-116892000D01*
X107363308Y-116892000D02*
X107506165Y-116939619D01*
X107506165Y-116939619D02*
X107601403Y-116939619D01*
X107601403Y-116939619D02*
X107744260Y-116892000D01*
X107744260Y-116892000D02*
X107839498Y-116796761D01*
X107839498Y-116796761D02*
X107887117Y-116701523D01*
X107887117Y-116701523D02*
X107934736Y-116511047D01*
X107934736Y-116511047D02*
X107934736Y-116368190D01*
X107934736Y-116368190D02*
X107887117Y-116177714D01*
X107887117Y-116177714D02*
X107839498Y-116082476D01*
X107839498Y-116082476D02*
X107744260Y-115987238D01*
X107744260Y-115987238D02*
X107601403Y-115939619D01*
X107601403Y-115939619D02*
X107506165Y-115939619D01*
X107506165Y-115939619D02*
X107363308Y-115987238D01*
X107363308Y-115987238D02*
X107315689Y-116034857D01*
X106458546Y-116272952D02*
X106458546Y-116939619D01*
X106696641Y-115892000D02*
X106934736Y-116606285D01*
X106934736Y-116606285D02*
X106315689Y-116606285D01*
%TO.C,R1*%
X112180166Y-108935619D02*
X112513499Y-108459428D01*
X112751594Y-108935619D02*
X112751594Y-107935619D01*
X112751594Y-107935619D02*
X112370642Y-107935619D01*
X112370642Y-107935619D02*
X112275404Y-107983238D01*
X112275404Y-107983238D02*
X112227785Y-108030857D01*
X112227785Y-108030857D02*
X112180166Y-108126095D01*
X112180166Y-108126095D02*
X112180166Y-108268952D01*
X112180166Y-108268952D02*
X112227785Y-108364190D01*
X112227785Y-108364190D02*
X112275404Y-108411809D01*
X112275404Y-108411809D02*
X112370642Y-108459428D01*
X112370642Y-108459428D02*
X112751594Y-108459428D01*
X111227785Y-108935619D02*
X111799213Y-108935619D01*
X111513499Y-108935619D02*
X111513499Y-107935619D01*
X111513499Y-107935619D02*
X111608737Y-108078476D01*
X111608737Y-108078476D02*
X111703975Y-108173714D01*
X111703975Y-108173714D02*
X111799213Y-108221333D01*
%TO.C,C2*%
X112180166Y-111380380D02*
X112227785Y-111428000D01*
X112227785Y-111428000D02*
X112370642Y-111475619D01*
X112370642Y-111475619D02*
X112465880Y-111475619D01*
X112465880Y-111475619D02*
X112608737Y-111428000D01*
X112608737Y-111428000D02*
X112703975Y-111332761D01*
X112703975Y-111332761D02*
X112751594Y-111237523D01*
X112751594Y-111237523D02*
X112799213Y-111047047D01*
X112799213Y-111047047D02*
X112799213Y-110904190D01*
X112799213Y-110904190D02*
X112751594Y-110713714D01*
X112751594Y-110713714D02*
X112703975Y-110618476D01*
X112703975Y-110618476D02*
X112608737Y-110523238D01*
X112608737Y-110523238D02*
X112465880Y-110475619D01*
X112465880Y-110475619D02*
X112370642Y-110475619D01*
X112370642Y-110475619D02*
X112227785Y-110523238D01*
X112227785Y-110523238D02*
X112180166Y-110570857D01*
X111799213Y-110570857D02*
X111751594Y-110523238D01*
X111751594Y-110523238D02*
X111656356Y-110475619D01*
X111656356Y-110475619D02*
X111418261Y-110475619D01*
X111418261Y-110475619D02*
X111323023Y-110523238D01*
X111323023Y-110523238D02*
X111275404Y-110570857D01*
X111275404Y-110570857D02*
X111227785Y-110666095D01*
X111227785Y-110666095D02*
X111227785Y-110761333D01*
X111227785Y-110761333D02*
X111275404Y-110904190D01*
X111275404Y-110904190D02*
X111846832Y-111475619D01*
X111846832Y-111475619D02*
X111227785Y-111475619D01*
%TO.C,R16*%
X112545357Y-93695619D02*
X112878690Y-93219428D01*
X113116785Y-93695619D02*
X113116785Y-92695619D01*
X113116785Y-92695619D02*
X112735833Y-92695619D01*
X112735833Y-92695619D02*
X112640595Y-92743238D01*
X112640595Y-92743238D02*
X112592976Y-92790857D01*
X112592976Y-92790857D02*
X112545357Y-92886095D01*
X112545357Y-92886095D02*
X112545357Y-93028952D01*
X112545357Y-93028952D02*
X112592976Y-93124190D01*
X112592976Y-93124190D02*
X112640595Y-93171809D01*
X112640595Y-93171809D02*
X112735833Y-93219428D01*
X112735833Y-93219428D02*
X113116785Y-93219428D01*
X111592976Y-93695619D02*
X112164404Y-93695619D01*
X111878690Y-93695619D02*
X111878690Y-92695619D01*
X111878690Y-92695619D02*
X111973928Y-92838476D01*
X111973928Y-92838476D02*
X112069166Y-92933714D01*
X112069166Y-92933714D02*
X112164404Y-92981333D01*
X110735833Y-92695619D02*
X110926309Y-92695619D01*
X110926309Y-92695619D02*
X111021547Y-92743238D01*
X111021547Y-92743238D02*
X111069166Y-92790857D01*
X111069166Y-92790857D02*
X111164404Y-92933714D01*
X111164404Y-92933714D02*
X111212023Y-93124190D01*
X111212023Y-93124190D02*
X111212023Y-93505142D01*
X111212023Y-93505142D02*
X111164404Y-93600380D01*
X111164404Y-93600380D02*
X111116785Y-93648000D01*
X111116785Y-93648000D02*
X111021547Y-93695619D01*
X111021547Y-93695619D02*
X110831071Y-93695619D01*
X110831071Y-93695619D02*
X110735833Y-93648000D01*
X110735833Y-93648000D02*
X110688214Y-93600380D01*
X110688214Y-93600380D02*
X110640595Y-93505142D01*
X110640595Y-93505142D02*
X110640595Y-93267047D01*
X110640595Y-93267047D02*
X110688214Y-93171809D01*
X110688214Y-93171809D02*
X110735833Y-93124190D01*
X110735833Y-93124190D02*
X110831071Y-93076571D01*
X110831071Y-93076571D02*
X111021547Y-93076571D01*
X111021547Y-93076571D02*
X111116785Y-93124190D01*
X111116785Y-93124190D02*
X111164404Y-93171809D01*
X111164404Y-93171809D02*
X111212023Y-93267047D01*
%TO.C,R25*%
X121911857Y-122951369D02*
X122245190Y-122475178D01*
X122483285Y-122951369D02*
X122483285Y-121951369D01*
X122483285Y-121951369D02*
X122102333Y-121951369D01*
X122102333Y-121951369D02*
X122007095Y-121998988D01*
X122007095Y-121998988D02*
X121959476Y-122046607D01*
X121959476Y-122046607D02*
X121911857Y-122141845D01*
X121911857Y-122141845D02*
X121911857Y-122284702D01*
X121911857Y-122284702D02*
X121959476Y-122379940D01*
X121959476Y-122379940D02*
X122007095Y-122427559D01*
X122007095Y-122427559D02*
X122102333Y-122475178D01*
X122102333Y-122475178D02*
X122483285Y-122475178D01*
X121530904Y-122046607D02*
X121483285Y-121998988D01*
X121483285Y-121998988D02*
X121388047Y-121951369D01*
X121388047Y-121951369D02*
X121149952Y-121951369D01*
X121149952Y-121951369D02*
X121054714Y-121998988D01*
X121054714Y-121998988D02*
X121007095Y-122046607D01*
X121007095Y-122046607D02*
X120959476Y-122141845D01*
X120959476Y-122141845D02*
X120959476Y-122237083D01*
X120959476Y-122237083D02*
X121007095Y-122379940D01*
X121007095Y-122379940D02*
X121578523Y-122951369D01*
X121578523Y-122951369D02*
X120959476Y-122951369D01*
X120054714Y-121951369D02*
X120530904Y-121951369D01*
X120530904Y-121951369D02*
X120578523Y-122427559D01*
X120578523Y-122427559D02*
X120530904Y-122379940D01*
X120530904Y-122379940D02*
X120435666Y-122332321D01*
X120435666Y-122332321D02*
X120197571Y-122332321D01*
X120197571Y-122332321D02*
X120102333Y-122379940D01*
X120102333Y-122379940D02*
X120054714Y-122427559D01*
X120054714Y-122427559D02*
X120007095Y-122522797D01*
X120007095Y-122522797D02*
X120007095Y-122760892D01*
X120007095Y-122760892D02*
X120054714Y-122856130D01*
X120054714Y-122856130D02*
X120102333Y-122903750D01*
X120102333Y-122903750D02*
X120197571Y-122951369D01*
X120197571Y-122951369D02*
X120435666Y-122951369D01*
X120435666Y-122951369D02*
X120530904Y-122903750D01*
X120530904Y-122903750D02*
X120578523Y-122856130D01*
%TO.C,C11*%
X112545357Y-91060380D02*
X112592976Y-91108000D01*
X112592976Y-91108000D02*
X112735833Y-91155619D01*
X112735833Y-91155619D02*
X112831071Y-91155619D01*
X112831071Y-91155619D02*
X112973928Y-91108000D01*
X112973928Y-91108000D02*
X113069166Y-91012761D01*
X113069166Y-91012761D02*
X113116785Y-90917523D01*
X113116785Y-90917523D02*
X113164404Y-90727047D01*
X113164404Y-90727047D02*
X113164404Y-90584190D01*
X113164404Y-90584190D02*
X113116785Y-90393714D01*
X113116785Y-90393714D02*
X113069166Y-90298476D01*
X113069166Y-90298476D02*
X112973928Y-90203238D01*
X112973928Y-90203238D02*
X112831071Y-90155619D01*
X112831071Y-90155619D02*
X112735833Y-90155619D01*
X112735833Y-90155619D02*
X112592976Y-90203238D01*
X112592976Y-90203238D02*
X112545357Y-90250857D01*
X111592976Y-91155619D02*
X112164404Y-91155619D01*
X111878690Y-91155619D02*
X111878690Y-90155619D01*
X111878690Y-90155619D02*
X111973928Y-90298476D01*
X111973928Y-90298476D02*
X112069166Y-90393714D01*
X112069166Y-90393714D02*
X112164404Y-90441333D01*
X110640595Y-91155619D02*
X111212023Y-91155619D01*
X110926309Y-91155619D02*
X110926309Y-90155619D01*
X110926309Y-90155619D02*
X111021547Y-90298476D01*
X111021547Y-90298476D02*
X111116785Y-90393714D01*
X111116785Y-90393714D02*
X111212023Y-90441333D01*
%TO.C,R13*%
X115654457Y-75250819D02*
X115987790Y-74774628D01*
X116225885Y-75250819D02*
X116225885Y-74250819D01*
X116225885Y-74250819D02*
X115844933Y-74250819D01*
X115844933Y-74250819D02*
X115749695Y-74298438D01*
X115749695Y-74298438D02*
X115702076Y-74346057D01*
X115702076Y-74346057D02*
X115654457Y-74441295D01*
X115654457Y-74441295D02*
X115654457Y-74584152D01*
X115654457Y-74584152D02*
X115702076Y-74679390D01*
X115702076Y-74679390D02*
X115749695Y-74727009D01*
X115749695Y-74727009D02*
X115844933Y-74774628D01*
X115844933Y-74774628D02*
X116225885Y-74774628D01*
X114702076Y-75250819D02*
X115273504Y-75250819D01*
X114987790Y-75250819D02*
X114987790Y-74250819D01*
X114987790Y-74250819D02*
X115083028Y-74393676D01*
X115083028Y-74393676D02*
X115178266Y-74488914D01*
X115178266Y-74488914D02*
X115273504Y-74536533D01*
X114368742Y-74250819D02*
X113749695Y-74250819D01*
X113749695Y-74250819D02*
X114083028Y-74631771D01*
X114083028Y-74631771D02*
X113940171Y-74631771D01*
X113940171Y-74631771D02*
X113844933Y-74679390D01*
X113844933Y-74679390D02*
X113797314Y-74727009D01*
X113797314Y-74727009D02*
X113749695Y-74822247D01*
X113749695Y-74822247D02*
X113749695Y-75060342D01*
X113749695Y-75060342D02*
X113797314Y-75155580D01*
X113797314Y-75155580D02*
X113844933Y-75203200D01*
X113844933Y-75203200D02*
X113940171Y-75250819D01*
X113940171Y-75250819D02*
X114225885Y-75250819D01*
X114225885Y-75250819D02*
X114321123Y-75203200D01*
X114321123Y-75203200D02*
X114368742Y-75155580D01*
%TO.C,J12*%
X104949523Y-55977619D02*
X104949523Y-56691904D01*
X104949523Y-56691904D02*
X104997142Y-56834761D01*
X104997142Y-56834761D02*
X105092380Y-56930000D01*
X105092380Y-56930000D02*
X105235237Y-56977619D01*
X105235237Y-56977619D02*
X105330475Y-56977619D01*
X103949523Y-56977619D02*
X104520951Y-56977619D01*
X104235237Y-56977619D02*
X104235237Y-55977619D01*
X104235237Y-55977619D02*
X104330475Y-56120476D01*
X104330475Y-56120476D02*
X104425713Y-56215714D01*
X104425713Y-56215714D02*
X104520951Y-56263333D01*
X103568570Y-56072857D02*
X103520951Y-56025238D01*
X103520951Y-56025238D02*
X103425713Y-55977619D01*
X103425713Y-55977619D02*
X103187618Y-55977619D01*
X103187618Y-55977619D02*
X103092380Y-56025238D01*
X103092380Y-56025238D02*
X103044761Y-56072857D01*
X103044761Y-56072857D02*
X102997142Y-56168095D01*
X102997142Y-56168095D02*
X102997142Y-56263333D01*
X102997142Y-56263333D02*
X103044761Y-56406190D01*
X103044761Y-56406190D02*
X103616189Y-56977619D01*
X103616189Y-56977619D02*
X102997142Y-56977619D01*
X102020476Y-54548809D02*
X102353809Y-54548809D01*
X102353809Y-55072619D02*
X102353809Y-54072619D01*
X102353809Y-54072619D02*
X101877619Y-54072619D01*
X101020476Y-55072619D02*
X101496666Y-55072619D01*
X101496666Y-55072619D02*
X101496666Y-54072619D01*
X100734761Y-54786904D02*
X100258571Y-54786904D01*
X100829999Y-55072619D02*
X100496666Y-54072619D01*
X100496666Y-54072619D02*
X100163333Y-55072619D01*
X99877618Y-55025000D02*
X99734761Y-55072619D01*
X99734761Y-55072619D02*
X99496666Y-55072619D01*
X99496666Y-55072619D02*
X99401428Y-55025000D01*
X99401428Y-55025000D02*
X99353809Y-54977380D01*
X99353809Y-54977380D02*
X99306190Y-54882142D01*
X99306190Y-54882142D02*
X99306190Y-54786904D01*
X99306190Y-54786904D02*
X99353809Y-54691666D01*
X99353809Y-54691666D02*
X99401428Y-54644047D01*
X99401428Y-54644047D02*
X99496666Y-54596428D01*
X99496666Y-54596428D02*
X99687142Y-54548809D01*
X99687142Y-54548809D02*
X99782380Y-54501190D01*
X99782380Y-54501190D02*
X99829999Y-54453571D01*
X99829999Y-54453571D02*
X99877618Y-54358333D01*
X99877618Y-54358333D02*
X99877618Y-54263095D01*
X99877618Y-54263095D02*
X99829999Y-54167857D01*
X99829999Y-54167857D02*
X99782380Y-54120238D01*
X99782380Y-54120238D02*
X99687142Y-54072619D01*
X99687142Y-54072619D02*
X99449047Y-54072619D01*
X99449047Y-54072619D02*
X99306190Y-54120238D01*
X98877618Y-55072619D02*
X98877618Y-54072619D01*
X98877618Y-54548809D02*
X98306190Y-54548809D01*
X98306190Y-55072619D02*
X98306190Y-54072619D01*
X105497142Y-57723809D02*
X105354285Y-57771428D01*
X105354285Y-57771428D02*
X105306666Y-57819047D01*
X105306666Y-57819047D02*
X105259047Y-57914285D01*
X105259047Y-57914285D02*
X105259047Y-58057142D01*
X105259047Y-58057142D02*
X105306666Y-58152380D01*
X105306666Y-58152380D02*
X105354285Y-58200000D01*
X105354285Y-58200000D02*
X105449523Y-58247619D01*
X105449523Y-58247619D02*
X105830475Y-58247619D01*
X105830475Y-58247619D02*
X105830475Y-57247619D01*
X105830475Y-57247619D02*
X105497142Y-57247619D01*
X105497142Y-57247619D02*
X105401904Y-57295238D01*
X105401904Y-57295238D02*
X105354285Y-57342857D01*
X105354285Y-57342857D02*
X105306666Y-57438095D01*
X105306666Y-57438095D02*
X105306666Y-57533333D01*
X105306666Y-57533333D02*
X105354285Y-57628571D01*
X105354285Y-57628571D02*
X105401904Y-57676190D01*
X105401904Y-57676190D02*
X105497142Y-57723809D01*
X105497142Y-57723809D02*
X105830475Y-57723809D01*
X104639999Y-57247619D02*
X104449523Y-57247619D01*
X104449523Y-57247619D02*
X104354285Y-57295238D01*
X104354285Y-57295238D02*
X104259047Y-57390476D01*
X104259047Y-57390476D02*
X104211428Y-57580952D01*
X104211428Y-57580952D02*
X104211428Y-57914285D01*
X104211428Y-57914285D02*
X104259047Y-58104761D01*
X104259047Y-58104761D02*
X104354285Y-58200000D01*
X104354285Y-58200000D02*
X104449523Y-58247619D01*
X104449523Y-58247619D02*
X104639999Y-58247619D01*
X104639999Y-58247619D02*
X104735237Y-58200000D01*
X104735237Y-58200000D02*
X104830475Y-58104761D01*
X104830475Y-58104761D02*
X104878094Y-57914285D01*
X104878094Y-57914285D02*
X104878094Y-57580952D01*
X104878094Y-57580952D02*
X104830475Y-57390476D01*
X104830475Y-57390476D02*
X104735237Y-57295238D01*
X104735237Y-57295238D02*
X104639999Y-57247619D01*
X103592380Y-57247619D02*
X103401904Y-57247619D01*
X103401904Y-57247619D02*
X103306666Y-57295238D01*
X103306666Y-57295238D02*
X103211428Y-57390476D01*
X103211428Y-57390476D02*
X103163809Y-57580952D01*
X103163809Y-57580952D02*
X103163809Y-57914285D01*
X103163809Y-57914285D02*
X103211428Y-58104761D01*
X103211428Y-58104761D02*
X103306666Y-58200000D01*
X103306666Y-58200000D02*
X103401904Y-58247619D01*
X103401904Y-58247619D02*
X103592380Y-58247619D01*
X103592380Y-58247619D02*
X103687618Y-58200000D01*
X103687618Y-58200000D02*
X103782856Y-58104761D01*
X103782856Y-58104761D02*
X103830475Y-57914285D01*
X103830475Y-57914285D02*
X103830475Y-57580952D01*
X103830475Y-57580952D02*
X103782856Y-57390476D01*
X103782856Y-57390476D02*
X103687618Y-57295238D01*
X103687618Y-57295238D02*
X103592380Y-57247619D01*
X102878094Y-57247619D02*
X102306666Y-57247619D01*
X102592380Y-58247619D02*
X102592380Y-57247619D01*
X97035713Y-55025000D02*
X96892856Y-55072619D01*
X96892856Y-55072619D02*
X96654761Y-55072619D01*
X96654761Y-55072619D02*
X96559523Y-55025000D01*
X96559523Y-55025000D02*
X96511904Y-54977380D01*
X96511904Y-54977380D02*
X96464285Y-54882142D01*
X96464285Y-54882142D02*
X96464285Y-54786904D01*
X96464285Y-54786904D02*
X96511904Y-54691666D01*
X96511904Y-54691666D02*
X96559523Y-54644047D01*
X96559523Y-54644047D02*
X96654761Y-54596428D01*
X96654761Y-54596428D02*
X96845237Y-54548809D01*
X96845237Y-54548809D02*
X96940475Y-54501190D01*
X96940475Y-54501190D02*
X96988094Y-54453571D01*
X96988094Y-54453571D02*
X97035713Y-54358333D01*
X97035713Y-54358333D02*
X97035713Y-54263095D01*
X97035713Y-54263095D02*
X96988094Y-54167857D01*
X96988094Y-54167857D02*
X96940475Y-54120238D01*
X96940475Y-54120238D02*
X96845237Y-54072619D01*
X96845237Y-54072619D02*
X96607142Y-54072619D01*
X96607142Y-54072619D02*
X96464285Y-54120238D01*
X95464285Y-55072619D02*
X95797618Y-54596428D01*
X96035713Y-55072619D02*
X96035713Y-54072619D01*
X96035713Y-54072619D02*
X95654761Y-54072619D01*
X95654761Y-54072619D02*
X95559523Y-54120238D01*
X95559523Y-54120238D02*
X95511904Y-54167857D01*
X95511904Y-54167857D02*
X95464285Y-54263095D01*
X95464285Y-54263095D02*
X95464285Y-54405952D01*
X95464285Y-54405952D02*
X95511904Y-54501190D01*
X95511904Y-54501190D02*
X95559523Y-54548809D01*
X95559523Y-54548809D02*
X95654761Y-54596428D01*
X95654761Y-54596428D02*
X96035713Y-54596428D01*
X95083332Y-54786904D02*
X94607142Y-54786904D01*
X95178570Y-55072619D02*
X94845237Y-54072619D01*
X94845237Y-54072619D02*
X94511904Y-55072619D01*
X94178570Y-55072619D02*
X94178570Y-54072619D01*
X94178570Y-54072619D02*
X93845237Y-54786904D01*
X93845237Y-54786904D02*
X93511904Y-54072619D01*
X93511904Y-54072619D02*
X93511904Y-55072619D01*
%TO.C,C5*%
X124220666Y-65772380D02*
X124268285Y-65820000D01*
X124268285Y-65820000D02*
X124411142Y-65867619D01*
X124411142Y-65867619D02*
X124506380Y-65867619D01*
X124506380Y-65867619D02*
X124649237Y-65820000D01*
X124649237Y-65820000D02*
X124744475Y-65724761D01*
X124744475Y-65724761D02*
X124792094Y-65629523D01*
X124792094Y-65629523D02*
X124839713Y-65439047D01*
X124839713Y-65439047D02*
X124839713Y-65296190D01*
X124839713Y-65296190D02*
X124792094Y-65105714D01*
X124792094Y-65105714D02*
X124744475Y-65010476D01*
X124744475Y-65010476D02*
X124649237Y-64915238D01*
X124649237Y-64915238D02*
X124506380Y-64867619D01*
X124506380Y-64867619D02*
X124411142Y-64867619D01*
X124411142Y-64867619D02*
X124268285Y-64915238D01*
X124268285Y-64915238D02*
X124220666Y-64962857D01*
X123315904Y-64867619D02*
X123792094Y-64867619D01*
X123792094Y-64867619D02*
X123839713Y-65343809D01*
X123839713Y-65343809D02*
X123792094Y-65296190D01*
X123792094Y-65296190D02*
X123696856Y-65248571D01*
X123696856Y-65248571D02*
X123458761Y-65248571D01*
X123458761Y-65248571D02*
X123363523Y-65296190D01*
X123363523Y-65296190D02*
X123315904Y-65343809D01*
X123315904Y-65343809D02*
X123268285Y-65439047D01*
X123268285Y-65439047D02*
X123268285Y-65677142D01*
X123268285Y-65677142D02*
X123315904Y-65772380D01*
X123315904Y-65772380D02*
X123363523Y-65820000D01*
X123363523Y-65820000D02*
X123458761Y-65867619D01*
X123458761Y-65867619D02*
X123696856Y-65867619D01*
X123696856Y-65867619D02*
X123792094Y-65820000D01*
X123792094Y-65820000D02*
X123839713Y-65772380D01*
%TO.C,R18*%
X131595357Y-93695619D02*
X131928690Y-93219428D01*
X132166785Y-93695619D02*
X132166785Y-92695619D01*
X132166785Y-92695619D02*
X131785833Y-92695619D01*
X131785833Y-92695619D02*
X131690595Y-92743238D01*
X131690595Y-92743238D02*
X131642976Y-92790857D01*
X131642976Y-92790857D02*
X131595357Y-92886095D01*
X131595357Y-92886095D02*
X131595357Y-93028952D01*
X131595357Y-93028952D02*
X131642976Y-93124190D01*
X131642976Y-93124190D02*
X131690595Y-93171809D01*
X131690595Y-93171809D02*
X131785833Y-93219428D01*
X131785833Y-93219428D02*
X132166785Y-93219428D01*
X130642976Y-93695619D02*
X131214404Y-93695619D01*
X130928690Y-93695619D02*
X130928690Y-92695619D01*
X130928690Y-92695619D02*
X131023928Y-92838476D01*
X131023928Y-92838476D02*
X131119166Y-92933714D01*
X131119166Y-92933714D02*
X131214404Y-92981333D01*
X130071547Y-93124190D02*
X130166785Y-93076571D01*
X130166785Y-93076571D02*
X130214404Y-93028952D01*
X130214404Y-93028952D02*
X130262023Y-92933714D01*
X130262023Y-92933714D02*
X130262023Y-92886095D01*
X130262023Y-92886095D02*
X130214404Y-92790857D01*
X130214404Y-92790857D02*
X130166785Y-92743238D01*
X130166785Y-92743238D02*
X130071547Y-92695619D01*
X130071547Y-92695619D02*
X129881071Y-92695619D01*
X129881071Y-92695619D02*
X129785833Y-92743238D01*
X129785833Y-92743238D02*
X129738214Y-92790857D01*
X129738214Y-92790857D02*
X129690595Y-92886095D01*
X129690595Y-92886095D02*
X129690595Y-92933714D01*
X129690595Y-92933714D02*
X129738214Y-93028952D01*
X129738214Y-93028952D02*
X129785833Y-93076571D01*
X129785833Y-93076571D02*
X129881071Y-93124190D01*
X129881071Y-93124190D02*
X130071547Y-93124190D01*
X130071547Y-93124190D02*
X130166785Y-93171809D01*
X130166785Y-93171809D02*
X130214404Y-93219428D01*
X130214404Y-93219428D02*
X130262023Y-93314666D01*
X130262023Y-93314666D02*
X130262023Y-93505142D01*
X130262023Y-93505142D02*
X130214404Y-93600380D01*
X130214404Y-93600380D02*
X130166785Y-93648000D01*
X130166785Y-93648000D02*
X130071547Y-93695619D01*
X130071547Y-93695619D02*
X129881071Y-93695619D01*
X129881071Y-93695619D02*
X129785833Y-93648000D01*
X129785833Y-93648000D02*
X129738214Y-93600380D01*
X129738214Y-93600380D02*
X129690595Y-93505142D01*
X129690595Y-93505142D02*
X129690595Y-93314666D01*
X129690595Y-93314666D02*
X129738214Y-93219428D01*
X129738214Y-93219428D02*
X129785833Y-93171809D01*
X129785833Y-93171809D02*
X129881071Y-93124190D01*
%TO.C,D3*%
X122023094Y-117363369D02*
X122023094Y-116363369D01*
X122023094Y-116363369D02*
X121784999Y-116363369D01*
X121784999Y-116363369D02*
X121642142Y-116410988D01*
X121642142Y-116410988D02*
X121546904Y-116506226D01*
X121546904Y-116506226D02*
X121499285Y-116601464D01*
X121499285Y-116601464D02*
X121451666Y-116791940D01*
X121451666Y-116791940D02*
X121451666Y-116934797D01*
X121451666Y-116934797D02*
X121499285Y-117125273D01*
X121499285Y-117125273D02*
X121546904Y-117220511D01*
X121546904Y-117220511D02*
X121642142Y-117315750D01*
X121642142Y-117315750D02*
X121784999Y-117363369D01*
X121784999Y-117363369D02*
X122023094Y-117363369D01*
X121118332Y-116363369D02*
X120499285Y-116363369D01*
X120499285Y-116363369D02*
X120832618Y-116744321D01*
X120832618Y-116744321D02*
X120689761Y-116744321D01*
X120689761Y-116744321D02*
X120594523Y-116791940D01*
X120594523Y-116791940D02*
X120546904Y-116839559D01*
X120546904Y-116839559D02*
X120499285Y-116934797D01*
X120499285Y-116934797D02*
X120499285Y-117172892D01*
X120499285Y-117172892D02*
X120546904Y-117268130D01*
X120546904Y-117268130D02*
X120594523Y-117315750D01*
X120594523Y-117315750D02*
X120689761Y-117363369D01*
X120689761Y-117363369D02*
X120975475Y-117363369D01*
X120975475Y-117363369D02*
X121070713Y-117315750D01*
X121070713Y-117315750D02*
X121118332Y-117268130D01*
%TO.C,J6*%
X98123333Y-66562619D02*
X98123333Y-67276904D01*
X98123333Y-67276904D02*
X98170952Y-67419761D01*
X98170952Y-67419761D02*
X98266190Y-67515000D01*
X98266190Y-67515000D02*
X98409047Y-67562619D01*
X98409047Y-67562619D02*
X98504285Y-67562619D01*
X97218571Y-66562619D02*
X97409047Y-66562619D01*
X97409047Y-66562619D02*
X97504285Y-66610238D01*
X97504285Y-66610238D02*
X97551904Y-66657857D01*
X97551904Y-66657857D02*
X97647142Y-66800714D01*
X97647142Y-66800714D02*
X97694761Y-66991190D01*
X97694761Y-66991190D02*
X97694761Y-67372142D01*
X97694761Y-67372142D02*
X97647142Y-67467380D01*
X97647142Y-67467380D02*
X97599523Y-67515000D01*
X97599523Y-67515000D02*
X97504285Y-67562619D01*
X97504285Y-67562619D02*
X97313809Y-67562619D01*
X97313809Y-67562619D02*
X97218571Y-67515000D01*
X97218571Y-67515000D02*
X97170952Y-67467380D01*
X97170952Y-67467380D02*
X97123333Y-67372142D01*
X97123333Y-67372142D02*
X97123333Y-67134047D01*
X97123333Y-67134047D02*
X97170952Y-67038809D01*
X97170952Y-67038809D02*
X97218571Y-66991190D01*
X97218571Y-66991190D02*
X97313809Y-66943571D01*
X97313809Y-66943571D02*
X97504285Y-66943571D01*
X97504285Y-66943571D02*
X97599523Y-66991190D01*
X97599523Y-66991190D02*
X97647142Y-67038809D01*
X97647142Y-67038809D02*
X97694761Y-67134047D01*
X103631904Y-60787619D02*
X103631904Y-60120952D01*
X103631904Y-60311428D02*
X103584285Y-60216190D01*
X103584285Y-60216190D02*
X103536666Y-60168571D01*
X103536666Y-60168571D02*
X103441428Y-60120952D01*
X103441428Y-60120952D02*
X103346190Y-60120952D01*
X103060475Y-60740000D02*
X102965237Y-60787619D01*
X102965237Y-60787619D02*
X102774761Y-60787619D01*
X102774761Y-60787619D02*
X102679523Y-60740000D01*
X102679523Y-60740000D02*
X102631904Y-60644761D01*
X102631904Y-60644761D02*
X102631904Y-60597142D01*
X102631904Y-60597142D02*
X102679523Y-60501904D01*
X102679523Y-60501904D02*
X102774761Y-60454285D01*
X102774761Y-60454285D02*
X102917618Y-60454285D01*
X102917618Y-60454285D02*
X103012856Y-60406666D01*
X103012856Y-60406666D02*
X103060475Y-60311428D01*
X103060475Y-60311428D02*
X103060475Y-60263809D01*
X103060475Y-60263809D02*
X103012856Y-60168571D01*
X103012856Y-60168571D02*
X102917618Y-60120952D01*
X102917618Y-60120952D02*
X102774761Y-60120952D01*
X102774761Y-60120952D02*
X102679523Y-60168571D01*
X102346189Y-60120952D02*
X101965237Y-60120952D01*
X102203332Y-59787619D02*
X102203332Y-60644761D01*
X102203332Y-60644761D02*
X102155713Y-60740000D01*
X102155713Y-60740000D02*
X102060475Y-60787619D01*
X102060475Y-60787619D02*
X101965237Y-60787619D01*
X105338333Y-64550000D02*
X105243095Y-64597619D01*
X105243095Y-64597619D02*
X105052619Y-64597619D01*
X105052619Y-64597619D02*
X104957381Y-64550000D01*
X104957381Y-64550000D02*
X104909762Y-64454761D01*
X104909762Y-64454761D02*
X104909762Y-64407142D01*
X104909762Y-64407142D02*
X104957381Y-64311904D01*
X104957381Y-64311904D02*
X105052619Y-64264285D01*
X105052619Y-64264285D02*
X105195476Y-64264285D01*
X105195476Y-64264285D02*
X105290714Y-64216666D01*
X105290714Y-64216666D02*
X105338333Y-64121428D01*
X105338333Y-64121428D02*
X105338333Y-64073809D01*
X105338333Y-64073809D02*
X105290714Y-63978571D01*
X105290714Y-63978571D02*
X105195476Y-63930952D01*
X105195476Y-63930952D02*
X105052619Y-63930952D01*
X105052619Y-63930952D02*
X104957381Y-63978571D01*
X104576428Y-63930952D02*
X104385952Y-64597619D01*
X104385952Y-64597619D02*
X104195476Y-64121428D01*
X104195476Y-64121428D02*
X104005000Y-64597619D01*
X104005000Y-64597619D02*
X103814524Y-63930952D01*
X103005000Y-64550000D02*
X103100238Y-64597619D01*
X103100238Y-64597619D02*
X103290714Y-64597619D01*
X103290714Y-64597619D02*
X103385952Y-64550000D01*
X103385952Y-64550000D02*
X103433571Y-64502380D01*
X103433571Y-64502380D02*
X103481190Y-64407142D01*
X103481190Y-64407142D02*
X103481190Y-64121428D01*
X103481190Y-64121428D02*
X103433571Y-64026190D01*
X103433571Y-64026190D02*
X103385952Y-63978571D01*
X103385952Y-63978571D02*
X103290714Y-63930952D01*
X103290714Y-63930952D02*
X103100238Y-63930952D01*
X103100238Y-63930952D02*
X103005000Y-63978571D01*
X102433571Y-64597619D02*
X102528809Y-64550000D01*
X102528809Y-64550000D02*
X102576428Y-64454761D01*
X102576428Y-64454761D02*
X102576428Y-63597619D01*
X102052618Y-64597619D02*
X102052618Y-63597619D01*
X101957380Y-64216666D02*
X101671666Y-64597619D01*
X101671666Y-63930952D02*
X102052618Y-64311904D01*
X105385951Y-65820000D02*
X105290713Y-65867619D01*
X105290713Y-65867619D02*
X105100237Y-65867619D01*
X105100237Y-65867619D02*
X105004999Y-65820000D01*
X105004999Y-65820000D02*
X104957380Y-65724761D01*
X104957380Y-65724761D02*
X104957380Y-65677142D01*
X104957380Y-65677142D02*
X105004999Y-65581904D01*
X105004999Y-65581904D02*
X105100237Y-65534285D01*
X105100237Y-65534285D02*
X105243094Y-65534285D01*
X105243094Y-65534285D02*
X105338332Y-65486666D01*
X105338332Y-65486666D02*
X105385951Y-65391428D01*
X105385951Y-65391428D02*
X105385951Y-65343809D01*
X105385951Y-65343809D02*
X105338332Y-65248571D01*
X105338332Y-65248571D02*
X105243094Y-65200952D01*
X105243094Y-65200952D02*
X105100237Y-65200952D01*
X105100237Y-65200952D02*
X105004999Y-65248571D01*
X104624046Y-65200952D02*
X104433570Y-65867619D01*
X104433570Y-65867619D02*
X104243094Y-65391428D01*
X104243094Y-65391428D02*
X104052618Y-65867619D01*
X104052618Y-65867619D02*
X103862142Y-65200952D01*
X103052618Y-65867619D02*
X103052618Y-64867619D01*
X103052618Y-65820000D02*
X103147856Y-65867619D01*
X103147856Y-65867619D02*
X103338332Y-65867619D01*
X103338332Y-65867619D02*
X103433570Y-65820000D01*
X103433570Y-65820000D02*
X103481189Y-65772380D01*
X103481189Y-65772380D02*
X103528808Y-65677142D01*
X103528808Y-65677142D02*
X103528808Y-65391428D01*
X103528808Y-65391428D02*
X103481189Y-65296190D01*
X103481189Y-65296190D02*
X103433570Y-65248571D01*
X103433570Y-65248571D02*
X103338332Y-65200952D01*
X103338332Y-65200952D02*
X103147856Y-65200952D01*
X103147856Y-65200952D02*
X103052618Y-65248571D01*
X102576427Y-65867619D02*
X102576427Y-65200952D01*
X102576427Y-64867619D02*
X102624046Y-64915238D01*
X102624046Y-64915238D02*
X102576427Y-64962857D01*
X102576427Y-64962857D02*
X102528808Y-64915238D01*
X102528808Y-64915238D02*
X102576427Y-64867619D01*
X102576427Y-64867619D02*
X102576427Y-64962857D01*
X101957380Y-65867619D02*
X102052618Y-65820000D01*
X102052618Y-65820000D02*
X102100237Y-65772380D01*
X102100237Y-65772380D02*
X102147856Y-65677142D01*
X102147856Y-65677142D02*
X102147856Y-65391428D01*
X102147856Y-65391428D02*
X102100237Y-65296190D01*
X102100237Y-65296190D02*
X102052618Y-65248571D01*
X102052618Y-65248571D02*
X101957380Y-65200952D01*
X101957380Y-65200952D02*
X101814523Y-65200952D01*
X101814523Y-65200952D02*
X101719285Y-65248571D01*
X101719285Y-65248571D02*
X101671666Y-65296190D01*
X101671666Y-65296190D02*
X101624047Y-65391428D01*
X101624047Y-65391428D02*
X101624047Y-65677142D01*
X101624047Y-65677142D02*
X101671666Y-65772380D01*
X101671666Y-65772380D02*
X101719285Y-65820000D01*
X101719285Y-65820000D02*
X101814523Y-65867619D01*
X101814523Y-65867619D02*
X101957380Y-65867619D01*
%TO.C,C1*%
X131295166Y-106300380D02*
X131342785Y-106348000D01*
X131342785Y-106348000D02*
X131485642Y-106395619D01*
X131485642Y-106395619D02*
X131580880Y-106395619D01*
X131580880Y-106395619D02*
X131723737Y-106348000D01*
X131723737Y-106348000D02*
X131818975Y-106252761D01*
X131818975Y-106252761D02*
X131866594Y-106157523D01*
X131866594Y-106157523D02*
X131914213Y-105967047D01*
X131914213Y-105967047D02*
X131914213Y-105824190D01*
X131914213Y-105824190D02*
X131866594Y-105633714D01*
X131866594Y-105633714D02*
X131818975Y-105538476D01*
X131818975Y-105538476D02*
X131723737Y-105443238D01*
X131723737Y-105443238D02*
X131580880Y-105395619D01*
X131580880Y-105395619D02*
X131485642Y-105395619D01*
X131485642Y-105395619D02*
X131342785Y-105443238D01*
X131342785Y-105443238D02*
X131295166Y-105490857D01*
X130342785Y-106395619D02*
X130914213Y-106395619D01*
X130628499Y-106395619D02*
X130628499Y-105395619D01*
X130628499Y-105395619D02*
X130723737Y-105538476D01*
X130723737Y-105538476D02*
X130818975Y-105633714D01*
X130818975Y-105633714D02*
X130914213Y-105681333D01*
%TO.C,R3*%
X156441666Y-95712619D02*
X156774999Y-95236428D01*
X157013094Y-95712619D02*
X157013094Y-94712619D01*
X157013094Y-94712619D02*
X156632142Y-94712619D01*
X156632142Y-94712619D02*
X156536904Y-94760238D01*
X156536904Y-94760238D02*
X156489285Y-94807857D01*
X156489285Y-94807857D02*
X156441666Y-94903095D01*
X156441666Y-94903095D02*
X156441666Y-95045952D01*
X156441666Y-95045952D02*
X156489285Y-95141190D01*
X156489285Y-95141190D02*
X156536904Y-95188809D01*
X156536904Y-95188809D02*
X156632142Y-95236428D01*
X156632142Y-95236428D02*
X157013094Y-95236428D01*
X156108332Y-94712619D02*
X155489285Y-94712619D01*
X155489285Y-94712619D02*
X155822618Y-95093571D01*
X155822618Y-95093571D02*
X155679761Y-95093571D01*
X155679761Y-95093571D02*
X155584523Y-95141190D01*
X155584523Y-95141190D02*
X155536904Y-95188809D01*
X155536904Y-95188809D02*
X155489285Y-95284047D01*
X155489285Y-95284047D02*
X155489285Y-95522142D01*
X155489285Y-95522142D02*
X155536904Y-95617380D01*
X155536904Y-95617380D02*
X155584523Y-95665000D01*
X155584523Y-95665000D02*
X155679761Y-95712619D01*
X155679761Y-95712619D02*
X155965475Y-95712619D01*
X155965475Y-95712619D02*
X156060713Y-95665000D01*
X156060713Y-95665000D02*
X156108332Y-95617380D01*
%TO.C,C13*%
X123197857Y-71487380D02*
X123245476Y-71535000D01*
X123245476Y-71535000D02*
X123388333Y-71582619D01*
X123388333Y-71582619D02*
X123483571Y-71582619D01*
X123483571Y-71582619D02*
X123626428Y-71535000D01*
X123626428Y-71535000D02*
X123721666Y-71439761D01*
X123721666Y-71439761D02*
X123769285Y-71344523D01*
X123769285Y-71344523D02*
X123816904Y-71154047D01*
X123816904Y-71154047D02*
X123816904Y-71011190D01*
X123816904Y-71011190D02*
X123769285Y-70820714D01*
X123769285Y-70820714D02*
X123721666Y-70725476D01*
X123721666Y-70725476D02*
X123626428Y-70630238D01*
X123626428Y-70630238D02*
X123483571Y-70582619D01*
X123483571Y-70582619D02*
X123388333Y-70582619D01*
X123388333Y-70582619D02*
X123245476Y-70630238D01*
X123245476Y-70630238D02*
X123197857Y-70677857D01*
X122245476Y-71582619D02*
X122816904Y-71582619D01*
X122531190Y-71582619D02*
X122531190Y-70582619D01*
X122531190Y-70582619D02*
X122626428Y-70725476D01*
X122626428Y-70725476D02*
X122721666Y-70820714D01*
X122721666Y-70820714D02*
X122816904Y-70868333D01*
X121912142Y-70582619D02*
X121293095Y-70582619D01*
X121293095Y-70582619D02*
X121626428Y-70963571D01*
X121626428Y-70963571D02*
X121483571Y-70963571D01*
X121483571Y-70963571D02*
X121388333Y-71011190D01*
X121388333Y-71011190D02*
X121340714Y-71058809D01*
X121340714Y-71058809D02*
X121293095Y-71154047D01*
X121293095Y-71154047D02*
X121293095Y-71392142D01*
X121293095Y-71392142D02*
X121340714Y-71487380D01*
X121340714Y-71487380D02*
X121388333Y-71535000D01*
X121388333Y-71535000D02*
X121483571Y-71582619D01*
X121483571Y-71582619D02*
X121769285Y-71582619D01*
X121769285Y-71582619D02*
X121864523Y-71535000D01*
X121864523Y-71535000D02*
X121912142Y-71487380D01*
%TO.C,R6*%
X88558666Y-57612619D02*
X88891999Y-57136428D01*
X89130094Y-57612619D02*
X89130094Y-56612619D01*
X89130094Y-56612619D02*
X88749142Y-56612619D01*
X88749142Y-56612619D02*
X88653904Y-56660238D01*
X88653904Y-56660238D02*
X88606285Y-56707857D01*
X88606285Y-56707857D02*
X88558666Y-56803095D01*
X88558666Y-56803095D02*
X88558666Y-56945952D01*
X88558666Y-56945952D02*
X88606285Y-57041190D01*
X88606285Y-57041190D02*
X88653904Y-57088809D01*
X88653904Y-57088809D02*
X88749142Y-57136428D01*
X88749142Y-57136428D02*
X89130094Y-57136428D01*
X87701523Y-56612619D02*
X87891999Y-56612619D01*
X87891999Y-56612619D02*
X87987237Y-56660238D01*
X87987237Y-56660238D02*
X88034856Y-56707857D01*
X88034856Y-56707857D02*
X88130094Y-56850714D01*
X88130094Y-56850714D02*
X88177713Y-57041190D01*
X88177713Y-57041190D02*
X88177713Y-57422142D01*
X88177713Y-57422142D02*
X88130094Y-57517380D01*
X88130094Y-57517380D02*
X88082475Y-57565000D01*
X88082475Y-57565000D02*
X87987237Y-57612619D01*
X87987237Y-57612619D02*
X87796761Y-57612619D01*
X87796761Y-57612619D02*
X87701523Y-57565000D01*
X87701523Y-57565000D02*
X87653904Y-57517380D01*
X87653904Y-57517380D02*
X87606285Y-57422142D01*
X87606285Y-57422142D02*
X87606285Y-57184047D01*
X87606285Y-57184047D02*
X87653904Y-57088809D01*
X87653904Y-57088809D02*
X87701523Y-57041190D01*
X87701523Y-57041190D02*
X87796761Y-56993571D01*
X87796761Y-56993571D02*
X87987237Y-56993571D01*
X87987237Y-56993571D02*
X88082475Y-57041190D01*
X88082475Y-57041190D02*
X88130094Y-57088809D01*
X88130094Y-57088809D02*
X88177713Y-57184047D01*
%TO.C,C3*%
X107315689Y-122559380D02*
X107363308Y-122607000D01*
X107363308Y-122607000D02*
X107506165Y-122654619D01*
X107506165Y-122654619D02*
X107601403Y-122654619D01*
X107601403Y-122654619D02*
X107744260Y-122607000D01*
X107744260Y-122607000D02*
X107839498Y-122511761D01*
X107839498Y-122511761D02*
X107887117Y-122416523D01*
X107887117Y-122416523D02*
X107934736Y-122226047D01*
X107934736Y-122226047D02*
X107934736Y-122083190D01*
X107934736Y-122083190D02*
X107887117Y-121892714D01*
X107887117Y-121892714D02*
X107839498Y-121797476D01*
X107839498Y-121797476D02*
X107744260Y-121702238D01*
X107744260Y-121702238D02*
X107601403Y-121654619D01*
X107601403Y-121654619D02*
X107506165Y-121654619D01*
X107506165Y-121654619D02*
X107363308Y-121702238D01*
X107363308Y-121702238D02*
X107315689Y-121749857D01*
X106982355Y-121654619D02*
X106363308Y-121654619D01*
X106363308Y-121654619D02*
X106696641Y-122035571D01*
X106696641Y-122035571D02*
X106553784Y-122035571D01*
X106553784Y-122035571D02*
X106458546Y-122083190D01*
X106458546Y-122083190D02*
X106410927Y-122130809D01*
X106410927Y-122130809D02*
X106363308Y-122226047D01*
X106363308Y-122226047D02*
X106363308Y-122464142D01*
X106363308Y-122464142D02*
X106410927Y-122559380D01*
X106410927Y-122559380D02*
X106458546Y-122607000D01*
X106458546Y-122607000D02*
X106553784Y-122654619D01*
X106553784Y-122654619D02*
X106839498Y-122654619D01*
X106839498Y-122654619D02*
X106934736Y-122607000D01*
X106934736Y-122607000D02*
X106982355Y-122559380D01*
D12*
%TO.C,R4*%
X156945000Y-112802936D02*
X156945000Y-113257064D01*
X155475000Y-112802936D02*
X155475000Y-113257064D01*
%TO.C,C12*%
X115260752Y-79998000D02*
X114738248Y-79998000D01*
X115260752Y-78528000D02*
X114738248Y-78528000D01*
%TO.C,C9*%
X113511000Y-59454148D02*
X113511000Y-59976652D01*
X112041000Y-59454148D02*
X112041000Y-59976652D01*
%TO.C,R2*%
X156945000Y-76135936D02*
X156945000Y-76590064D01*
X155475000Y-76135936D02*
X155475000Y-76590064D01*
%TO.C,R14*%
X127481000Y-78004936D02*
X127481000Y-78459064D01*
X126011000Y-78004936D02*
X126011000Y-78459064D01*
%TO.C,C22*%
X95668252Y-124433000D02*
X95145748Y-124433000D01*
X95668252Y-122963000D02*
X95145748Y-122963000D01*
%TO.C,C6*%
X119505800Y-68481748D02*
X119505800Y-69004252D01*
X118035800Y-68481748D02*
X118035800Y-69004252D01*
%TO.C,C21*%
X95145748Y-125122000D02*
X95668252Y-125122000D01*
X95145748Y-126592000D02*
X95668252Y-126592000D01*
%TO.C,C10*%
X127516248Y-89958000D02*
X128038752Y-89958000D01*
X127516248Y-91428000D02*
X128038752Y-91428000D01*
%TO.C,C8*%
X115670000Y-59454148D02*
X115670000Y-59976652D01*
X114200000Y-59454148D02*
X114200000Y-59976652D01*
%TO.C,C23*%
X122455000Y-135382252D02*
X122455000Y-134859748D01*
X123925000Y-135382252D02*
X123925000Y-134859748D01*
%TO.C,C7*%
X127075000Y-62233348D02*
X127075000Y-62755852D01*
X125605000Y-62233348D02*
X125605000Y-62755852D01*
%TO.C,C4*%
X106887771Y-117307500D02*
X107410275Y-117307500D01*
X106887771Y-118777500D02*
X107410275Y-118777500D01*
%TO.C,R1*%
X114961436Y-107738000D02*
X115415564Y-107738000D01*
X114961436Y-109208000D02*
X115415564Y-109208000D01*
%TO.C,C2*%
X114927248Y-110278000D02*
X115449752Y-110278000D01*
X114927248Y-111748000D02*
X115449752Y-111748000D01*
%TO.C,R16*%
X114850436Y-92498000D02*
X115304564Y-92498000D01*
X114850436Y-93968000D02*
X115304564Y-93968000D01*
%TO.C,R25*%
X121041936Y-120229750D02*
X121496064Y-120229750D01*
X121041936Y-121699750D02*
X121496064Y-121699750D01*
%TO.C,C11*%
X114816248Y-89958000D02*
X115338752Y-89958000D01*
X114816248Y-91428000D02*
X115338752Y-91428000D01*
%TO.C,R13*%
X114772436Y-75988000D02*
X115226564Y-75988000D01*
X114772436Y-77458000D02*
X115226564Y-77458000D01*
%TO.C,J12*%
X96535000Y-58480000D02*
X101675000Y-58480000D01*
X93935000Y-55820000D02*
X93935000Y-57150000D01*
X95265000Y-55820000D02*
X93935000Y-55820000D01*
X96535000Y-55820000D02*
X96535000Y-58480000D01*
X96535000Y-55820000D02*
X101675000Y-55820000D01*
X101675000Y-55820000D02*
X101675000Y-58480000D01*
%TO.C,C5*%
X124789000Y-62233348D02*
X124789000Y-62755852D01*
X123319000Y-62233348D02*
X123319000Y-62755852D01*
%TO.C,R18*%
X128004564Y-93968000D02*
X127550436Y-93968000D01*
X128004564Y-92498000D02*
X127550436Y-92498000D01*
%TO.C,D3*%
X123495000Y-119678750D02*
X119635000Y-119678750D01*
X123495000Y-117678750D02*
X123495000Y-119678750D01*
X123495000Y-117678750D02*
X119635000Y-117678750D01*
%TO.C,J6*%
X94700000Y-66035000D02*
X96025000Y-66035000D01*
X96025000Y-59630000D02*
X99555000Y-59630000D01*
X96025000Y-59695000D02*
X96025000Y-59630000D01*
X96025000Y-66100000D02*
X96025000Y-66035000D01*
X96025000Y-66100000D02*
X99555000Y-66100000D01*
X99555000Y-59695000D02*
X99555000Y-59630000D01*
X99555000Y-66100000D02*
X99555000Y-66035000D01*
%TO.C,C1*%
X127692248Y-105198000D02*
X128214752Y-105198000D01*
X127692248Y-106668000D02*
X128214752Y-106668000D01*
%TO.C,R3*%
X156945000Y-97562936D02*
X156945000Y-98017064D01*
X155475000Y-97562936D02*
X155475000Y-98017064D01*
%TO.C,C13*%
X122522748Y-71945000D02*
X123045252Y-71945000D01*
X122522748Y-73415000D02*
X123045252Y-73415000D01*
%TO.C,R6*%
X91667064Y-57885000D02*
X91212936Y-57885000D01*
X91667064Y-56415000D02*
X91212936Y-56415000D01*
%TO.C,C3*%
X106887771Y-119552000D02*
X107410275Y-119552000D01*
X106887771Y-121022000D02*
X107410275Y-121022000D01*
%TD*%
M02*
