%TF.GenerationSoftware,KiCad,Pcbnew,7.0.1-3b83917a11~172~ubuntu22.04.1*%
%TF.CreationDate,2023-04-03T22:42:05+01:00*%
%TF.ProjectId,adsr_vca_fx,61647372-5f76-4636-915f-66782e6b6963,rev?*%
%TF.SameCoordinates,Original*%
%TF.FileFunction,Soldermask,Top*%
%TF.FilePolarity,Negative*%
%FSLAX46Y46*%
G04 Gerber Fmt 4.6, Leading zero omitted, Abs format (unit mm)*
G04 Created by KiCad (PCBNEW 7.0.1-3b83917a11~172~ubuntu22.04.1) date 2023-04-03 22:42:05*
%MOMM*%
%LPD*%
G01*
G04 APERTURE LIST*
G04 Aperture macros list*
%AMRoundRect*
0 Rectangle with rounded corners*
0 $1 Rounding radius*
0 $2 $3 $4 $5 $6 $7 $8 $9 X,Y pos of 4 corners*
0 Add a 4 corners polygon primitive as box body*
4,1,4,$2,$3,$4,$5,$6,$7,$8,$9,$2,$3,0*
0 Add four circle primitives for the rounded corners*
1,1,$1+$1,$2,$3*
1,1,$1+$1,$4,$5*
1,1,$1+$1,$6,$7*
1,1,$1+$1,$8,$9*
0 Add four rect primitives between the rounded corners*
20,1,$1+$1,$2,$3,$4,$5,0*
20,1,$1+$1,$4,$5,$6,$7,0*
20,1,$1+$1,$6,$7,$8,$9,0*
20,1,$1+$1,$8,$9,$2,$3,0*%
G04 Aperture macros list end*
%ADD10R,1.700000X1.700000*%
%ADD11O,1.700000X1.700000*%
%ADD12RoundRect,0.250000X0.350000X0.450000X-0.350000X0.450000X-0.350000X-0.450000X0.350000X-0.450000X0*%
%ADD13C,2.000000*%
%ADD14RoundRect,0.250000X-0.625000X0.400000X-0.625000X-0.400000X0.625000X-0.400000X0.625000X0.400000X0*%
%ADD15RoundRect,0.250000X0.450000X-0.350000X0.450000X0.350000X-0.450000X0.350000X-0.450000X-0.350000X0*%
%ADD16C,6.000000*%
%ADD17R,1.000000X1.000000*%
%ADD18RoundRect,0.250000X-0.450000X0.350000X-0.450000X-0.350000X0.450000X-0.350000X0.450000X0.350000X0*%
%ADD19R,1.560000X1.560000*%
%ADD20C,1.560000*%
%ADD21O,2.720000X3.240000*%
%ADD22R,1.800000X1.800000*%
%ADD23C,1.800000*%
%ADD24RoundRect,0.250000X-0.350000X-0.450000X0.350000X-0.450000X0.350000X0.450000X-0.350000X0.450000X0*%
%ADD25RoundRect,0.250000X0.325000X0.450000X-0.325000X0.450000X-0.325000X-0.450000X0.325000X-0.450000X0*%
%ADD26RoundRect,0.250000X0.337500X0.475000X-0.337500X0.475000X-0.337500X-0.475000X0.337500X-0.475000X0*%
%ADD27RoundRect,0.150000X0.512500X0.150000X-0.512500X0.150000X-0.512500X-0.150000X0.512500X-0.150000X0*%
%ADD28RoundRect,0.250000X-0.475000X0.337500X-0.475000X-0.337500X0.475000X-0.337500X0.475000X0.337500X0*%
%ADD29R,0.650000X1.560000*%
%ADD30R,7.700000X3.100000*%
%ADD31RoundRect,0.250000X0.475000X-0.337500X0.475000X0.337500X-0.475000X0.337500X-0.475000X-0.337500X0*%
%ADD32RoundRect,0.250000X0.625000X-0.400000X0.625000X0.400000X-0.625000X0.400000X-0.625000X-0.400000X0*%
%ADD33RoundRect,0.150000X-0.825000X-0.150000X0.825000X-0.150000X0.825000X0.150000X-0.825000X0.150000X0*%
%ADD34RoundRect,0.062500X-0.062500X0.375000X-0.062500X-0.375000X0.062500X-0.375000X0.062500X0.375000X0*%
%ADD35RoundRect,0.062500X-0.375000X0.062500X-0.375000X-0.062500X0.375000X-0.062500X0.375000X0.062500X0*%
%ADD36R,3.450000X3.450000*%
%ADD37RoundRect,0.150000X0.825000X0.150000X-0.825000X0.150000X-0.825000X-0.150000X0.825000X-0.150000X0*%
%ADD38RoundRect,0.250000X-0.337500X-0.475000X0.337500X-0.475000X0.337500X0.475000X-0.337500X0.475000X0*%
%ADD39RoundRect,0.150000X0.587500X0.150000X-0.587500X0.150000X-0.587500X-0.150000X0.587500X-0.150000X0*%
%ADD40RoundRect,0.150000X0.150000X-0.512500X0.150000X0.512500X-0.150000X0.512500X-0.150000X-0.512500X0*%
%ADD41C,3.000000*%
%ADD42C,1.600000*%
G04 APERTURE END LIST*
D10*
%TO.C,J1*%
X123784600Y-127152400D03*
D11*
X121244600Y-127152400D03*
X118704600Y-127152400D03*
%TD*%
D12*
%TO.C,R28*%
X98324800Y-134315200D03*
X96324800Y-134315200D03*
%TD*%
D13*
%TO.C,SW2*%
X137450000Y-68020000D03*
X137450000Y-61520000D03*
X141950000Y-68020000D03*
X141950000Y-61520000D03*
%TD*%
D14*
%TO.C,C16*%
X146558000Y-124742000D03*
X146558000Y-127842000D03*
%TD*%
D15*
%TO.C,R12*%
X122276000Y-105303000D03*
X122276000Y-103303000D03*
%TD*%
D16*
%TO.C,H3*%
X161290000Y-138430000D03*
%TD*%
D17*
%TO.C,TP6*%
X135890000Y-92710000D03*
%TD*%
D18*
%TO.C,R22*%
X135045550Y-124915200D03*
X135045550Y-126915200D03*
%TD*%
D10*
%TO.C,J3*%
X113284000Y-122488750D03*
D11*
X113284000Y-119948750D03*
X115824000Y-122488750D03*
X115824000Y-119948750D03*
%TD*%
D19*
%TO.C,RV1*%
X102790000Y-105587600D03*
D20*
X97790000Y-108087600D03*
X102790000Y-110587600D03*
%TD*%
D17*
%TO.C,TP4*%
X122784000Y-83820000D03*
%TD*%
D21*
%TO.C,RV3*%
X161010000Y-97025000D03*
X151410000Y-97025000D03*
D22*
X158710000Y-89525000D03*
D23*
X156210000Y-89525000D03*
X153710000Y-89525000D03*
%TD*%
D21*
%TO.C,RV4*%
X161010000Y-114805000D03*
X151410000Y-114805000D03*
D22*
X158710000Y-107305000D03*
D23*
X156210000Y-107305000D03*
X153710000Y-107305000D03*
%TD*%
D11*
%TO.C,J5*%
X139294000Y-109220000D03*
D10*
X141834000Y-109220000D03*
%TD*%
%TO.C,JP1*%
X101142800Y-117652800D03*
D11*
X98602800Y-117652800D03*
%TD*%
D21*
%TO.C,RV12*%
X89890000Y-111275000D03*
X80290000Y-111275000D03*
D22*
X87590000Y-103775000D03*
D23*
X85090000Y-103775000D03*
X82590000Y-103775000D03*
%TD*%
D24*
%TO.C,R8*%
X126777500Y-85613000D03*
X128777500Y-85613000D03*
%TD*%
D15*
%TO.C,R5*%
X146127500Y-108351000D03*
X146127500Y-106351000D03*
%TD*%
D25*
%TO.C,D1*%
X131581000Y-138688400D03*
X129531000Y-138688400D03*
%TD*%
D26*
%TO.C,C28*%
X116099500Y-131819000D03*
X114024500Y-131819000D03*
%TD*%
D10*
%TO.C,J9*%
X127787800Y-98943600D03*
D11*
X125247800Y-98943600D03*
%TD*%
D27*
%TO.C,U6*%
X140501050Y-126786000D03*
X140501050Y-125836000D03*
X140501050Y-124886000D03*
X138226050Y-124886000D03*
X138226050Y-125836000D03*
X138226050Y-126786000D03*
%TD*%
D13*
%TO.C,SW3*%
X147610000Y-68020000D03*
X147610000Y-61520000D03*
X152110000Y-68020000D03*
X152110000Y-61520000D03*
%TD*%
D28*
%TO.C,C27*%
X100965000Y-136623500D03*
X100965000Y-138698500D03*
%TD*%
D12*
%TO.C,R11*%
X129270000Y-71882000D03*
X127270000Y-71882000D03*
%TD*%
D24*
%TO.C,R19*%
X114077500Y-95773000D03*
X116077500Y-95773000D03*
%TD*%
D29*
%TO.C,U8*%
X119126000Y-136979000D03*
X120076000Y-136979000D03*
X121026000Y-136979000D03*
X121026000Y-134279000D03*
X119126000Y-134279000D03*
%TD*%
D14*
%TO.C,C17*%
X144018000Y-124768000D03*
X144018000Y-127868000D03*
%TD*%
D24*
%TO.C,R17*%
X125848000Y-82057000D03*
X127848000Y-82057000D03*
%TD*%
D19*
%TO.C,RV6*%
X143510000Y-77170000D03*
D20*
X141010000Y-72170000D03*
X138510000Y-77170000D03*
%TD*%
D15*
%TO.C,R9*%
X118974000Y-105303000D03*
X118974000Y-103303000D03*
%TD*%
D10*
%TO.C,J10*%
X116347500Y-98948000D03*
D11*
X118887500Y-98948000D03*
%TD*%
D19*
%TO.C,RV8*%
X138430000Y-105370000D03*
D20*
X143430000Y-102870000D03*
X138430000Y-100370000D03*
%TD*%
D29*
%TO.C,U10*%
X114112000Y-136979000D03*
X115062000Y-136979000D03*
X116012000Y-136979000D03*
X116012000Y-134279000D03*
X114112000Y-134279000D03*
%TD*%
D16*
%TO.C,H1*%
X161290000Y-54610000D03*
%TD*%
D30*
%TO.C,L1*%
X155702000Y-126450000D03*
X155702000Y-133350000D03*
%TD*%
D21*
%TO.C,RV11*%
X89890000Y-76969000D03*
X80290000Y-76969000D03*
D22*
X87590000Y-69469000D03*
D23*
X85090000Y-69469000D03*
X82590000Y-69469000D03*
%TD*%
D10*
%TO.C,J8*%
X142240000Y-92710000D03*
D11*
X139700000Y-92710000D03*
%TD*%
D21*
%TO.C,RV13*%
X89890000Y-94130000D03*
X80290000Y-94130000D03*
D22*
X87590000Y-86630000D03*
D23*
X85090000Y-86630000D03*
X82590000Y-86630000D03*
%TD*%
D31*
%TO.C,C26*%
X105537000Y-138698500D03*
X105537000Y-136623500D03*
%TD*%
D21*
%TO.C,RV14*%
X89890000Y-128775000D03*
X80290000Y-128775000D03*
D22*
X87590000Y-121275000D03*
D23*
X85090000Y-121275000D03*
X82590000Y-121275000D03*
%TD*%
D15*
%TO.C,R21*%
X132759550Y-126915200D03*
X132759550Y-124915200D03*
%TD*%
D12*
%TO.C,R15*%
X116062000Y-82296000D03*
X114062000Y-82296000D03*
%TD*%
D13*
%TO.C,SW1*%
X81840000Y-61504000D03*
X88340000Y-61504000D03*
X81840000Y-66004000D03*
X88340000Y-66004000D03*
%TD*%
D29*
%TO.C,U9*%
X109032000Y-136979000D03*
X109982000Y-136979000D03*
X110932000Y-136979000D03*
X110932000Y-134279000D03*
X109032000Y-134279000D03*
%TD*%
D26*
%TO.C,C24*%
X119038500Y-131819000D03*
X121113500Y-131819000D03*
%TD*%
D27*
%TO.C,U2*%
X108455023Y-119525000D03*
X108455023Y-118575000D03*
X108455023Y-117625000D03*
X106180023Y-117625000D03*
X106180023Y-118575000D03*
X106180023Y-119525000D03*
%TD*%
D19*
%TO.C,RV9*%
X97790000Y-83812000D03*
D20*
X102790000Y-81312000D03*
X97790000Y-78812000D03*
%TD*%
D26*
%TO.C,C25*%
X111019500Y-131819000D03*
X108944500Y-131819000D03*
%TD*%
D19*
%TO.C,RV7*%
X97870000Y-100290000D03*
D20*
X102870000Y-97790000D03*
X97870000Y-95290000D03*
%TD*%
D32*
%TO.C,C20*%
X149098000Y-134016000D03*
X149098000Y-130916000D03*
%TD*%
D17*
%TO.C,TP5*%
X107290000Y-89190000D03*
%TD*%
D16*
%TO.C,H4*%
X80010000Y-138430000D03*
%TD*%
D33*
%TO.C,U4*%
X119017500Y-85613000D03*
X119017500Y-86883000D03*
X119017500Y-88153000D03*
X119017500Y-89423000D03*
X119017500Y-90693000D03*
X119017500Y-91963000D03*
X119017500Y-93233000D03*
X119017500Y-94503000D03*
X123967500Y-94503000D03*
X123967500Y-93233000D03*
X123967500Y-91963000D03*
X123967500Y-90693000D03*
X123967500Y-89423000D03*
X123967500Y-88153000D03*
X123967500Y-86883000D03*
X123967500Y-85613000D03*
%TD*%
D34*
%TO.C,U3*%
X122276000Y-60712000D03*
X121776000Y-60712000D03*
X121276000Y-60712000D03*
X120776000Y-60712000D03*
X120276000Y-60712000D03*
X119776000Y-60712000D03*
X119276000Y-60712000D03*
X118776000Y-60712000D03*
D35*
X118088500Y-61399500D03*
X118088500Y-61899500D03*
X118088500Y-62399500D03*
X118088500Y-62899500D03*
X118088500Y-63399500D03*
X118088500Y-63899500D03*
X118088500Y-64399500D03*
X118088500Y-64899500D03*
D34*
X118776000Y-65587000D03*
X119276000Y-65587000D03*
X119776000Y-65587000D03*
X120276000Y-65587000D03*
X120776000Y-65587000D03*
X121276000Y-65587000D03*
X121776000Y-65587000D03*
X122276000Y-65587000D03*
D35*
X122963500Y-64899500D03*
X122963500Y-64399500D03*
X122963500Y-63899500D03*
X122963500Y-63399500D03*
X122963500Y-62899500D03*
X122963500Y-62399500D03*
X122963500Y-61899500D03*
X122963500Y-61399500D03*
D36*
X120526000Y-63149500D03*
%TD*%
D24*
%TO.C,R23*%
X133705600Y-138688400D03*
X135705600Y-138688400D03*
%TD*%
D12*
%TO.C,R7*%
X116077500Y-85613000D03*
X114077500Y-85613000D03*
%TD*%
D19*
%TO.C,RV5*%
X97790000Y-76192000D03*
D20*
X102790000Y-73692000D03*
X97790000Y-71192000D03*
%TD*%
D15*
%TO.C,R27*%
X103251000Y-138661000D03*
X103251000Y-136661000D03*
%TD*%
D17*
%TO.C,TP3*%
X119736000Y-83820000D03*
%TD*%
D32*
%TO.C,C19*%
X144065800Y-133990000D03*
X144065800Y-130890000D03*
%TD*%
D12*
%TO.C,R20*%
X128777500Y-95773000D03*
X126777500Y-95773000D03*
%TD*%
D37*
%TO.C,U5*%
X123824500Y-79263000D03*
X123824500Y-77993000D03*
X123824500Y-76723000D03*
X123824500Y-75453000D03*
X118874500Y-75453000D03*
X118874500Y-76723000D03*
X118874500Y-77993000D03*
X118874500Y-79263000D03*
%TD*%
D25*
%TO.C,D5*%
X102320200Y-134315200D03*
X100270200Y-134315200D03*
%TD*%
D38*
%TO.C,C15*%
X113962000Y-71643000D03*
X116037000Y-71643000D03*
%TD*%
D33*
%TO.C,U1*%
X119063500Y-107203000D03*
X119063500Y-108473000D03*
X119063500Y-109743000D03*
X119063500Y-111013000D03*
X124013500Y-111013000D03*
X124013500Y-109743000D03*
X124013500Y-108473000D03*
X124013500Y-107203000D03*
%TD*%
D17*
%TO.C,TP1*%
X108419023Y-121557000D03*
%TD*%
D13*
%TO.C,SW4*%
X157770000Y-68020000D03*
X157770000Y-61520000D03*
X162270000Y-68020000D03*
X162270000Y-61520000D03*
%TD*%
D21*
%TO.C,RV2*%
X161010000Y-79245000D03*
X151410000Y-79245000D03*
D22*
X158710000Y-71745000D03*
D23*
X156210000Y-71745000D03*
X153710000Y-71745000D03*
%TD*%
D32*
%TO.C,C29*%
X146558000Y-134016000D03*
X146558000Y-130916000D03*
%TD*%
D39*
%TO.C,U7*%
X96393000Y-126045000D03*
X96393000Y-124145000D03*
X94518000Y-125095000D03*
%TD*%
D38*
%TO.C,C14*%
X122914500Y-71882000D03*
X124989500Y-71882000D03*
%TD*%
D24*
%TO.C,R10*%
X113999500Y-74183000D03*
X115999500Y-74183000D03*
%TD*%
D10*
%TO.C,J2*%
X127000000Y-122488750D03*
D11*
X127000000Y-119948750D03*
X129540000Y-122488750D03*
X129540000Y-119948750D03*
%TD*%
D40*
%TO.C,Q1*%
X120335000Y-121340250D03*
X122235000Y-121340250D03*
X121285000Y-119065250D03*
%TD*%
D19*
%TO.C,RV10*%
X143510000Y-87630000D03*
D20*
X141010000Y-82630000D03*
X138510000Y-87630000D03*
%TD*%
D10*
%TO.C,J7*%
X99060000Y-89567000D03*
D11*
X101600000Y-89567000D03*
%TD*%
D14*
%TO.C,C30*%
X149098000Y-124768000D03*
X149098000Y-127868000D03*
%TD*%
D41*
%TO.C,J11*%
X109066200Y-56162400D03*
X109066200Y-79451200D03*
X132129400Y-56162400D03*
X132129400Y-79400400D03*
D42*
X116787800Y-55880000D03*
X119327800Y-55880000D03*
X121867800Y-55880000D03*
X124453800Y-55880000D03*
%TD*%
D17*
%TO.C,TP2*%
X115113200Y-105598400D03*
%TD*%
D25*
%TO.C,D2*%
X104657000Y-126187200D03*
X102607000Y-126187200D03*
%TD*%
D16*
%TO.C,H2*%
X80010000Y-54610000D03*
%TD*%
D38*
%TO.C,C18*%
X138326050Y-129341200D03*
X140401050Y-129341200D03*
%TD*%
D10*
%TO.C,J4*%
X122682000Y-114554000D03*
D11*
X120142000Y-114554000D03*
%TD*%
D24*
%TO.C,R24*%
X108169200Y-126187200D03*
X110169200Y-126187200D03*
%TD*%
D11*
%TO.C,J12*%
X100345000Y-57150000D03*
X97805000Y-57150000D03*
D10*
X95265000Y-57150000D03*
%TD*%
M02*
