%TF.GenerationSoftware,KiCad,Pcbnew,7.0.1-3b83917a11~172~ubuntu22.04.1*%
%TF.CreationDate,2023-04-03T22:42:05+01:00*%
%TF.ProjectId,adsr_vca_fx,61647372-5f76-4636-915f-66782e6b6963,rev?*%
%TF.SameCoordinates,Original*%
%TF.FileFunction,Paste,Top*%
%TF.FilePolarity,Positive*%
%FSLAX46Y46*%
G04 Gerber Fmt 4.6, Leading zero omitted, Abs format (unit mm)*
G04 Created by KiCad (PCBNEW 7.0.1-3b83917a11~172~ubuntu22.04.1) date 2023-04-03 22:42:05*
%MOMM*%
%LPD*%
G01*
G04 APERTURE LIST*
G04 Aperture macros list*
%AMRoundRect*
0 Rectangle with rounded corners*
0 $1 Rounding radius*
0 $2 $3 $4 $5 $6 $7 $8 $9 X,Y pos of 4 corners*
0 Add a 4 corners polygon primitive as box body*
4,1,4,$2,$3,$4,$5,$6,$7,$8,$9,$2,$3,0*
0 Add four circle primitives for the rounded corners*
1,1,$1+$1,$2,$3*
1,1,$1+$1,$4,$5*
1,1,$1+$1,$6,$7*
1,1,$1+$1,$8,$9*
0 Add four rect primitives between the rounded corners*
20,1,$1+$1,$2,$3,$4,$5,0*
20,1,$1+$1,$4,$5,$6,$7,0*
20,1,$1+$1,$6,$7,$8,$9,0*
20,1,$1+$1,$8,$9,$2,$3,0*%
%AMFreePoly0*
4,1,48,0.206759,0.287330,0.222702,0.287330,0.235600,0.277958,0.250763,0.273032,0.260133,0.260133,0.273032,0.250763,0.277958,0.235600,0.287330,0.222702,0.287330,0.206759,0.292257,0.191596,0.292257,-0.108205,0.289747,-0.115928,0.291018,-0.123951,0.280315,-0.144955,0.273032,-0.167372,0.266461,-0.172145,0.262774,-0.179383,0.179383,-0.262774,0.172145,-0.266461,0.167372,-0.273032,
0.144953,-0.280316,0.123952,-0.291017,0.115930,-0.289746,0.108205,-0.292257,-0.191596,-0.292257,-0.206759,-0.287330,-0.222702,-0.287330,-0.235600,-0.277958,-0.250763,-0.273032,-0.260133,-0.260133,-0.273032,-0.250763,-0.277958,-0.235600,-0.287330,-0.222702,-0.287330,-0.206759,-0.292257,-0.191596,-0.292257,0.191596,-0.287330,0.206759,-0.287330,0.222702,-0.277958,0.235600,-0.273032,0.250763,
-0.260133,0.260133,-0.250763,0.273032,-0.235600,0.277958,-0.222702,0.287330,-0.206759,0.287330,-0.191596,0.292257,0.191596,0.292257,0.206759,0.287330,0.206759,0.287330,$1*%
%AMFreePoly1*
4,1,51,0.147653,0.402231,0.149784,0.402802,0.153047,0.401280,0.170637,0.398179,0.184320,0.386697,0.200509,0.379148,0.268292,0.311365,0.271204,0.307206,0.273115,0.306103,0.274347,0.302717,0.284591,0.288088,0.286147,0.270294,0.292257,0.253509,0.292257,-0.253509,0.291375,-0.258507,0.291947,-0.260640,0.290423,-0.263906,0.287323,-0.281493,0.275841,-0.295175,0.268292,-0.311365,
0.200509,-0.379148,0.196350,-0.382060,0.195247,-0.383971,0.191862,-0.385202,0.177233,-0.395447,0.159438,-0.397003,0.142653,-0.403113,-0.210436,-0.403113,-0.221065,-0.401238,-0.224644,-0.401870,-0.227791,-0.400053,-0.238420,-0.398179,-0.254702,-0.384516,-0.273115,-0.373886,-0.275640,-0.366946,-0.281295,-0.362202,-0.284986,-0.341269,-0.292257,-0.321292,-0.292257,0.321292,-0.290382,0.331921,
-0.291014,0.335500,-0.289197,0.338647,-0.287323,0.349276,-0.273660,0.365558,-0.263030,0.383971,-0.256090,0.386496,-0.251346,0.392151,-0.230413,0.395842,-0.210436,0.403113,0.142653,0.403113,0.147653,0.402231,0.147653,0.402231,$1*%
%AMFreePoly2*
4,1,48,0.115930,0.289746,0.123952,0.291017,0.144953,0.280316,0.167372,0.273032,0.172145,0.266461,0.179383,0.262774,0.262774,0.179383,0.266461,0.172145,0.273032,0.167372,0.280315,0.144955,0.291018,0.123951,0.289747,0.115928,0.292257,0.108205,0.292257,-0.191596,0.287330,-0.206759,0.287330,-0.222702,0.277958,-0.235600,0.273032,-0.250763,0.260133,-0.260133,0.250763,-0.273032,
0.235600,-0.277958,0.222702,-0.287330,0.206759,-0.287330,0.191596,-0.292257,-0.191596,-0.292257,-0.206759,-0.287330,-0.222702,-0.287330,-0.235600,-0.277958,-0.250763,-0.273032,-0.260133,-0.260133,-0.273032,-0.250763,-0.277958,-0.235600,-0.287330,-0.222702,-0.287330,-0.206759,-0.292257,-0.191596,-0.292257,0.191596,-0.287330,0.206759,-0.287330,0.222702,-0.277958,0.235600,-0.273032,0.250763,
-0.260133,0.260133,-0.250763,0.273032,-0.235600,0.277958,-0.222702,0.287330,-0.206759,0.287330,-0.191596,0.292257,0.108205,0.292257,0.115930,0.289746,0.115930,0.289746,$1*%
%AMFreePoly3*
4,1,51,0.331921,0.290382,0.335500,0.291014,0.338647,0.289197,0.349276,0.287323,0.365558,0.273660,0.383971,0.263030,0.386496,0.256090,0.392151,0.251346,0.395842,0.230413,0.403113,0.210436,0.403113,-0.142653,0.402231,-0.147651,0.402803,-0.149784,0.401279,-0.153050,0.398179,-0.170637,0.386697,-0.184319,0.379148,-0.200509,0.311365,-0.268292,0.307206,-0.271204,0.306103,-0.273115,
0.302718,-0.274346,0.288089,-0.284591,0.270294,-0.286147,0.253509,-0.292257,-0.253509,-0.292257,-0.258507,-0.291375,-0.260640,-0.291947,-0.263906,-0.290423,-0.281493,-0.287323,-0.295175,-0.275841,-0.311365,-0.268292,-0.379148,-0.200509,-0.382060,-0.196350,-0.383971,-0.195247,-0.385202,-0.191862,-0.395447,-0.177233,-0.397003,-0.159438,-0.403113,-0.142653,-0.403113,0.210436,-0.401238,0.221065,
-0.401870,0.224644,-0.400053,0.227791,-0.398179,0.238420,-0.384516,0.254702,-0.373886,0.273115,-0.366946,0.275640,-0.362202,0.281295,-0.341269,0.284986,-0.321292,0.292257,0.321292,0.292257,0.331921,0.290382,0.331921,0.290382,$1*%
%AMFreePoly4*
4,1,51,0.258509,0.291375,0.260640,0.291946,0.263903,0.290424,0.281493,0.287323,0.295176,0.275841,0.311365,0.268292,0.379148,0.200509,0.382060,0.196350,0.383971,0.195247,0.385203,0.191861,0.395447,0.177232,0.397003,0.159438,0.403113,0.142653,0.403113,-0.210436,0.401238,-0.221065,0.401870,-0.224644,0.400053,-0.227791,0.398179,-0.238420,0.384516,-0.254702,0.373886,-0.273115,
0.366946,-0.275640,0.362202,-0.281295,0.341269,-0.284986,0.321292,-0.292257,-0.321292,-0.292257,-0.331921,-0.290382,-0.335500,-0.291014,-0.338647,-0.289197,-0.349276,-0.287323,-0.365558,-0.273660,-0.383971,-0.263030,-0.386496,-0.256090,-0.392151,-0.251346,-0.395842,-0.230413,-0.403113,-0.210436,-0.403113,0.142653,-0.402231,0.147653,-0.402802,0.149784,-0.401280,0.153047,-0.398179,0.170637,
-0.386697,0.184320,-0.379148,0.200509,-0.311365,0.268292,-0.307206,0.271204,-0.306103,0.273115,-0.302717,0.274347,-0.288088,0.284591,-0.270294,0.286147,-0.253509,0.292257,0.253509,0.292257,0.258509,0.291375,0.258509,0.291375,$1*%
%AMFreePoly5*
4,1,48,0.206759,0.287330,0.222702,0.287330,0.235600,0.277958,0.250763,0.273032,0.260133,0.260133,0.273032,0.250763,0.277958,0.235600,0.287330,0.222702,0.287330,0.206759,0.292257,0.191596,0.292257,-0.191596,0.287330,-0.206759,0.287330,-0.222702,0.277958,-0.235600,0.273032,-0.250763,0.260133,-0.260133,0.250763,-0.273032,0.235600,-0.277958,0.222702,-0.287330,0.206759,-0.287330,
0.191596,-0.292257,-0.108205,-0.292257,-0.115928,-0.289747,-0.123951,-0.291018,-0.144955,-0.280315,-0.167372,-0.273032,-0.172145,-0.266461,-0.179383,-0.262774,-0.262774,-0.179383,-0.266461,-0.172145,-0.273032,-0.167372,-0.280316,-0.144953,-0.291017,-0.123952,-0.289746,-0.115930,-0.292257,-0.108205,-0.292257,0.191596,-0.287330,0.206759,-0.287330,0.222702,-0.277958,0.235600,-0.273032,0.250763,
-0.260133,0.260133,-0.250763,0.273032,-0.235600,0.277958,-0.222702,0.287330,-0.206759,0.287330,-0.191596,0.292257,0.191596,0.292257,0.206759,0.287330,0.206759,0.287330,$1*%
%AMFreePoly6*
4,1,51,0.221065,0.401238,0.224644,0.401870,0.227791,0.400053,0.238420,0.398179,0.254702,0.384516,0.273115,0.373886,0.275640,0.366946,0.281295,0.362202,0.284986,0.341269,0.292257,0.321292,0.292257,-0.321292,0.290382,-0.331921,0.291014,-0.335500,0.289197,-0.338647,0.287323,-0.349276,0.273660,-0.365558,0.263030,-0.383971,0.256090,-0.386496,0.251346,-0.392151,0.230413,-0.395842,
0.210436,-0.403113,-0.142653,-0.403113,-0.147651,-0.402231,-0.149784,-0.402803,-0.153050,-0.401279,-0.170637,-0.398179,-0.184319,-0.386697,-0.200509,-0.379148,-0.268292,-0.311365,-0.271204,-0.307206,-0.273115,-0.306103,-0.274346,-0.302718,-0.284591,-0.288089,-0.286147,-0.270294,-0.292257,-0.253509,-0.292257,0.253509,-0.291375,0.258509,-0.291946,0.260640,-0.290424,0.263903,-0.287323,0.281493,
-0.275841,0.295176,-0.268292,0.311365,-0.200509,0.379148,-0.196350,0.382060,-0.195247,0.383971,-0.191861,0.385203,-0.177232,0.395447,-0.159438,0.397003,-0.142653,0.403113,0.210436,0.403113,0.221065,0.401238,0.221065,0.401238,$1*%
%AMFreePoly7*
4,1,48,0.206759,0.287330,0.222702,0.287330,0.235600,0.277958,0.250763,0.273032,0.260133,0.260133,0.273032,0.250763,0.277958,0.235600,0.287330,0.222702,0.287330,0.206759,0.292257,0.191596,0.292257,-0.191596,0.287330,-0.206759,0.287330,-0.222702,0.277958,-0.235600,0.273032,-0.250763,0.260133,-0.260133,0.250763,-0.273032,0.235600,-0.277958,0.222702,-0.287330,0.206759,-0.287330,
0.191596,-0.292257,-0.191596,-0.292257,-0.206759,-0.287330,-0.222702,-0.287330,-0.235600,-0.277958,-0.250763,-0.273032,-0.260133,-0.260133,-0.273032,-0.250763,-0.277958,-0.235600,-0.287330,-0.222702,-0.287330,-0.206759,-0.292257,-0.191596,-0.292257,0.108205,-0.289746,0.115930,-0.291017,0.123952,-0.280316,0.144953,-0.273032,0.167372,-0.266461,0.172145,-0.262774,0.179383,-0.179383,0.262774,
-0.172145,0.266461,-0.167372,0.273032,-0.144955,0.280315,-0.123951,0.291018,-0.115928,0.289747,-0.108205,0.292257,0.191596,0.292257,0.206759,0.287330,0.206759,0.287330,$1*%
G04 Aperture macros list end*
%ADD10RoundRect,0.250000X0.350000X0.450000X-0.350000X0.450000X-0.350000X-0.450000X0.350000X-0.450000X0*%
%ADD11RoundRect,0.250000X-0.625000X0.400000X-0.625000X-0.400000X0.625000X-0.400000X0.625000X0.400000X0*%
%ADD12RoundRect,0.250000X0.450000X-0.350000X0.450000X0.350000X-0.450000X0.350000X-0.450000X-0.350000X0*%
%ADD13RoundRect,0.250000X-0.450000X0.350000X-0.450000X-0.350000X0.450000X-0.350000X0.450000X0.350000X0*%
%ADD14RoundRect,0.250000X-0.350000X-0.450000X0.350000X-0.450000X0.350000X0.450000X-0.350000X0.450000X0*%
%ADD15RoundRect,0.250000X0.325000X0.450000X-0.325000X0.450000X-0.325000X-0.450000X0.325000X-0.450000X0*%
%ADD16RoundRect,0.250000X0.337500X0.475000X-0.337500X0.475000X-0.337500X-0.475000X0.337500X-0.475000X0*%
%ADD17RoundRect,0.150000X0.512500X0.150000X-0.512500X0.150000X-0.512500X-0.150000X0.512500X-0.150000X0*%
%ADD18RoundRect,0.250000X-0.475000X0.337500X-0.475000X-0.337500X0.475000X-0.337500X0.475000X0.337500X0*%
%ADD19R,0.650000X1.560000*%
%ADD20R,7.700000X3.100000*%
%ADD21RoundRect,0.250000X0.475000X-0.337500X0.475000X0.337500X-0.475000X0.337500X-0.475000X-0.337500X0*%
%ADD22RoundRect,0.250000X0.625000X-0.400000X0.625000X0.400000X-0.625000X0.400000X-0.625000X-0.400000X0*%
%ADD23RoundRect,0.150000X-0.825000X-0.150000X0.825000X-0.150000X0.825000X0.150000X-0.825000X0.150000X0*%
%ADD24FreePoly0,270.000000*%
%ADD25FreePoly1,270.000000*%
%ADD26FreePoly2,270.000000*%
%ADD27FreePoly3,270.000000*%
%ADD28RoundRect,0.201557X-0.201556X0.201556X-0.201556X-0.201556X0.201556X-0.201556X0.201556X0.201556X0*%
%ADD29FreePoly4,270.000000*%
%ADD30FreePoly5,270.000000*%
%ADD31FreePoly6,270.000000*%
%ADD32FreePoly7,270.000000*%
%ADD33RoundRect,0.062500X-0.062500X0.375000X-0.062500X-0.375000X0.062500X-0.375000X0.062500X0.375000X0*%
%ADD34RoundRect,0.062500X-0.375000X0.062500X-0.375000X-0.062500X0.375000X-0.062500X0.375000X0.062500X0*%
%ADD35RoundRect,0.150000X0.825000X0.150000X-0.825000X0.150000X-0.825000X-0.150000X0.825000X-0.150000X0*%
%ADD36RoundRect,0.250000X-0.337500X-0.475000X0.337500X-0.475000X0.337500X0.475000X-0.337500X0.475000X0*%
%ADD37RoundRect,0.150000X0.587500X0.150000X-0.587500X0.150000X-0.587500X-0.150000X0.587500X-0.150000X0*%
%ADD38RoundRect,0.150000X0.150000X-0.512500X0.150000X0.512500X-0.150000X0.512500X-0.150000X-0.512500X0*%
G04 APERTURE END LIST*
D10*
%TO.C,R28*%
X98324800Y-134315200D03*
X96324800Y-134315200D03*
%TD*%
D11*
%TO.C,C16*%
X146558000Y-124742000D03*
X146558000Y-127842000D03*
%TD*%
D12*
%TO.C,R12*%
X122276000Y-105303000D03*
X122276000Y-103303000D03*
%TD*%
D13*
%TO.C,R22*%
X135045550Y-124915200D03*
X135045550Y-126915200D03*
%TD*%
D14*
%TO.C,R8*%
X126777500Y-85613000D03*
X128777500Y-85613000D03*
%TD*%
D12*
%TO.C,R5*%
X146127500Y-108351000D03*
X146127500Y-106351000D03*
%TD*%
D15*
%TO.C,D1*%
X131581000Y-138688400D03*
X129531000Y-138688400D03*
%TD*%
D16*
%TO.C,C28*%
X116099500Y-131819000D03*
X114024500Y-131819000D03*
%TD*%
D17*
%TO.C,U6*%
X140501050Y-126786000D03*
X140501050Y-125836000D03*
X140501050Y-124886000D03*
X138226050Y-124886000D03*
X138226050Y-125836000D03*
X138226050Y-126786000D03*
%TD*%
D18*
%TO.C,C27*%
X100965000Y-136623500D03*
X100965000Y-138698500D03*
%TD*%
D10*
%TO.C,R11*%
X129270000Y-71882000D03*
X127270000Y-71882000D03*
%TD*%
D14*
%TO.C,R19*%
X114077500Y-95773000D03*
X116077500Y-95773000D03*
%TD*%
D19*
%TO.C,U8*%
X119126000Y-136979000D03*
X120076000Y-136979000D03*
X121026000Y-136979000D03*
X121026000Y-134279000D03*
X119126000Y-134279000D03*
%TD*%
D11*
%TO.C,C17*%
X144018000Y-124768000D03*
X144018000Y-127868000D03*
%TD*%
D14*
%TO.C,R17*%
X125848000Y-82057000D03*
X127848000Y-82057000D03*
%TD*%
D12*
%TO.C,R9*%
X118974000Y-105303000D03*
X118974000Y-103303000D03*
%TD*%
D19*
%TO.C,U10*%
X114112000Y-136979000D03*
X115062000Y-136979000D03*
X116012000Y-136979000D03*
X116012000Y-134279000D03*
X114112000Y-134279000D03*
%TD*%
D20*
%TO.C,L1*%
X155702000Y-126450000D03*
X155702000Y-133350000D03*
%TD*%
D21*
%TO.C,C26*%
X105537000Y-138698500D03*
X105537000Y-136623500D03*
%TD*%
D12*
%TO.C,R21*%
X132759550Y-126915200D03*
X132759550Y-124915200D03*
%TD*%
D10*
%TO.C,R15*%
X116062000Y-82296000D03*
X114062000Y-82296000D03*
%TD*%
D19*
%TO.C,U9*%
X109032000Y-136979000D03*
X109982000Y-136979000D03*
X110932000Y-136979000D03*
X110932000Y-134279000D03*
X109032000Y-134279000D03*
%TD*%
D16*
%TO.C,C24*%
X119038500Y-131819000D03*
X121113500Y-131819000D03*
%TD*%
D17*
%TO.C,U2*%
X108455023Y-119525000D03*
X108455023Y-118575000D03*
X108455023Y-117625000D03*
X106180023Y-117625000D03*
X106180023Y-118575000D03*
X106180023Y-119525000D03*
%TD*%
D16*
%TO.C,C25*%
X111019500Y-131819000D03*
X108944500Y-131819000D03*
%TD*%
D22*
%TO.C,C20*%
X149098000Y-134016000D03*
X149098000Y-130916000D03*
%TD*%
D23*
%TO.C,U4*%
X119017500Y-85613000D03*
X119017500Y-86883000D03*
X119017500Y-88153000D03*
X119017500Y-89423000D03*
X119017500Y-90693000D03*
X119017500Y-91963000D03*
X119017500Y-93233000D03*
X119017500Y-94503000D03*
X123967500Y-94503000D03*
X123967500Y-93233000D03*
X123967500Y-91963000D03*
X123967500Y-90693000D03*
X123967500Y-89423000D03*
X123967500Y-88153000D03*
X123967500Y-86883000D03*
X123967500Y-85613000D03*
%TD*%
D24*
%TO.C,U3*%
X121888500Y-61787000D03*
D25*
X121026000Y-61787000D03*
X120026000Y-61787000D03*
D26*
X119163500Y-61787000D03*
D27*
X121888500Y-62649500D03*
D28*
X121026000Y-62649500D03*
X120026000Y-62649500D03*
D29*
X119163500Y-62649500D03*
D27*
X121888500Y-63649500D03*
D28*
X121026000Y-63649500D03*
X120026000Y-63649500D03*
D29*
X119163500Y-63649500D03*
D30*
X121888500Y-64512000D03*
D31*
X121026000Y-64512000D03*
X120026000Y-64512000D03*
D32*
X119163500Y-64512000D03*
D33*
X122276000Y-60712000D03*
X121776000Y-60712000D03*
X121276000Y-60712000D03*
X120776000Y-60712000D03*
X120276000Y-60712000D03*
X119776000Y-60712000D03*
X119276000Y-60712000D03*
X118776000Y-60712000D03*
D34*
X118088500Y-61399500D03*
X118088500Y-61899500D03*
X118088500Y-62399500D03*
X118088500Y-62899500D03*
X118088500Y-63399500D03*
X118088500Y-63899500D03*
X118088500Y-64399500D03*
X118088500Y-64899500D03*
D33*
X118776000Y-65587000D03*
X119276000Y-65587000D03*
X119776000Y-65587000D03*
X120276000Y-65587000D03*
X120776000Y-65587000D03*
X121276000Y-65587000D03*
X121776000Y-65587000D03*
X122276000Y-65587000D03*
D34*
X122963500Y-64899500D03*
X122963500Y-64399500D03*
X122963500Y-63899500D03*
X122963500Y-63399500D03*
X122963500Y-62899500D03*
X122963500Y-62399500D03*
X122963500Y-61899500D03*
X122963500Y-61399500D03*
%TD*%
D14*
%TO.C,R23*%
X133705600Y-138688400D03*
X135705600Y-138688400D03*
%TD*%
D10*
%TO.C,R7*%
X116077500Y-85613000D03*
X114077500Y-85613000D03*
%TD*%
D12*
%TO.C,R27*%
X103251000Y-138661000D03*
X103251000Y-136661000D03*
%TD*%
D22*
%TO.C,C19*%
X144065800Y-133990000D03*
X144065800Y-130890000D03*
%TD*%
D10*
%TO.C,R20*%
X128777500Y-95773000D03*
X126777500Y-95773000D03*
%TD*%
D35*
%TO.C,U5*%
X123824500Y-79263000D03*
X123824500Y-77993000D03*
X123824500Y-76723000D03*
X123824500Y-75453000D03*
X118874500Y-75453000D03*
X118874500Y-76723000D03*
X118874500Y-77993000D03*
X118874500Y-79263000D03*
%TD*%
D15*
%TO.C,D5*%
X102320200Y-134315200D03*
X100270200Y-134315200D03*
%TD*%
D36*
%TO.C,C15*%
X113962000Y-71643000D03*
X116037000Y-71643000D03*
%TD*%
D23*
%TO.C,U1*%
X119063500Y-107203000D03*
X119063500Y-108473000D03*
X119063500Y-109743000D03*
X119063500Y-111013000D03*
X124013500Y-111013000D03*
X124013500Y-109743000D03*
X124013500Y-108473000D03*
X124013500Y-107203000D03*
%TD*%
D22*
%TO.C,C29*%
X146558000Y-134016000D03*
X146558000Y-130916000D03*
%TD*%
D37*
%TO.C,U7*%
X96393000Y-126045000D03*
X96393000Y-124145000D03*
X94518000Y-125095000D03*
%TD*%
D36*
%TO.C,C14*%
X122914500Y-71882000D03*
X124989500Y-71882000D03*
%TD*%
D14*
%TO.C,R10*%
X113999500Y-74183000D03*
X115999500Y-74183000D03*
%TD*%
D38*
%TO.C,Q1*%
X120335000Y-121340250D03*
X122235000Y-121340250D03*
X121285000Y-119065250D03*
%TD*%
D11*
%TO.C,C30*%
X149098000Y-124768000D03*
X149098000Y-127868000D03*
%TD*%
D15*
%TO.C,D2*%
X104657000Y-126187200D03*
X102607000Y-126187200D03*
%TD*%
D36*
%TO.C,C18*%
X138326050Y-129341200D03*
X140401050Y-129341200D03*
%TD*%
D14*
%TO.C,R24*%
X108169200Y-126187200D03*
X110169200Y-126187200D03*
%TD*%
M02*
